P2
216 36
255
253 253 253 253 253 253 253 253 253 253 253 253 253 253 253 253 253 253 253 253 253 253 253 253 253 253 253 253 253 253 253 253 253 253 253 253 253 253 253 253 253 253 253 253 253 253 253 253 253 253 253 253 253 253 253 253 253 253 253 253 253 253 253 253 253 253 253 253 253 253 253 253 253 253 253 253 253 253 253 253 253 253 253 253 253 253 253 253 253 253 253 253 253 253 253 253 253 253 253 253 253 253 253 253 253 253 237 253 253 253 253 253 253 253 253 253 253 253 253 253 253 253 253 253 253 253 253 253 253 253 253 253 253 253 253 253 253 253 253 253 253 253 253 253 253 253 253 253 253 253 253 253 253 253 253 253 253 253 253 253 253 253 253 253 253 253 253 253 253 253 253 253 253 253 253 253 253 253 253 253 253 253 253 253 253 253 253 253 253 253 253 253 253 253 253 253 253 253 253 253 253 253 253 253 253 253 253 253 253 253 253 253 253 253 253 253 
253 253 253 253 253 253 253 253 253 253 253 253 253 253 253 253 253 253 253 253 253 253 253 253 253 253 253 253 253 253 253 253 253 253 253 253 253 204 210 253 253 253 253 253 253 253 253 253 253 253 253 253 253 253 253 253 253 253 253 253 253 253 253 253 253 253 229 220 253 253 253 253 253 237 237 253 253 253 253 253 253 253 253 253 253 253 253 253 253 253 253 253 253 253 253 253 253 253 253 253 253 253 253 253 253 246 253 253 253 253 235 253 253 253 253 253 253 253 253 253 253 253 253 253 253 253 253 253 253 253 253 253 253 253 253 253 253 253 253 253 253 194 224 239 253 253 253 253 253 253 253 253 253 253 253 253 253 253 253 253 253 253 253 253 253 253 253 253 253 253 253 253 253 253 253 253 253 253 253 208 242 253 253 253 253 253 253 253 253 253 253 253 253 253 253 253 253 253 253 253 253 253 253 253 253 253 253 253 253 253 253 253 253 253 253 253 
253 253 229 235 253 253 253 253 253 253 253 253 253 253 253 253 253 253 253 253 253 253 253 253 253 253 253 253 253 202 159 253 253 253 253 253 253 253 253 253 253 253 253 253 253 253 253 253 253 253 253 253 253 253 253 253 253 253 253 253 253 253 253 253 253 231 133 208 253 246 253 224 253 253 253 253 253 253 253 253 253 253 253 253 253 253 253 253 253 253 253 253 253 253 253 253 253 253 253 253 253 253 183 183 253 253 253 253 218 253 253 253 253 253 253 253 253 253 253 253 253 253 253 253 253 253 253 253 253 253 253 253 253 253 253 253 253 253 253 173 253 253 226 224 253 253 253 253 229 253 253 253 253 253 253 253 253 253 253 253 253 253 253 253 253 253 253 253 253 253 253 253 253 253 253 253 194 253 253 253 253 253 253 253 181 253 253 253 253 253 253 253 253 253 253 253 253 253 253 253 253 253 253 253 253 253 253 253 253 229 253 253 253 214 253 253 
253 253 133 163 253 253 253 253 253 253 253 253 253 253 253 253 253 253 253 253 253 253 253 253 253 253 253 253 253 242 253 233 253 253 196 157 212 139 208 253 253 253 253 253 253 253 253 253 253 253 253 253 253 253 253 253 253 253 253 253 253 253 253 253 253 253 253 214 151 253 177 200 198 177 214 253 253 253 253 253 253 253 253 253 253 253 253 253 253 253 253 253 253 253 253 253 253 253 253 253 253 253 253 208 134 159 183 152 186 216 253 253 253 253 253 253 253 253 253 253 253 253 253 253 253 253 253 253 253 253 253 253 253 253 253 253 253 253 253 253 190 192 179 154 161 242 253 244 208 253 253 253 253 253 253 253 253 253 253 253 253 253 253 253 253 253 253 253 253 253 253 253 253 218 253 253 253 177 179 151 200 253 229 173 253 253 253 253 253 253 253 253 253 253 253 253 253 253 253 253 253 253 253 253 253 253 253 253 253 192 253 253 253 184 166 138 
253 253 253 253 253 253 253 253 253 253 253 253 253 253 253 253 253 253 253 253 253 253 253 253 253 253 253 253 253 253 253 253 253 253 253 253 253 253 253 253 253 253 244 253 253 253 253 253 253 253 253 253 253 253 253 253 253 253 253 253 253 253 253 253 253 253 253 253 253 235 235 253 253 253 253 253 253 253 253 253 253 253 253 253 253 253 253 253 253 253 253 253 253 253 253 253 253 253 253 253 253 253 253 253 253 253 229 253 253 253 253 253 253 253 253 253 253 253 253 253 253 253 253 253 253 253 253 253 253 253 253 253 253 253 253 253 253 253 253 253 253 253 229 253 253 253 253 253 242 196 253 253 253 253 253 253 253 253 253 253 253 253 253 253 253 253 253 253 253 253 253 253 253 253 253 253 253 253 253 253 253 253 253 253 253 233 253 253 253 253 253 253 253 253 253 253 253 253 253 253 253 253 253 253 253 253 253 253 253 253 253 244 220 253 253 253 
253 253 253 253 253 253 253 253 253 253 253 253 253 253 253 253 253 253 253 253 253 253 253 253 253 253 253 253 253 253 253 253 253 253 253 253 253 253 253 253 253 253 253 253 253 253 253 253 253 253 253 253 253 253 253 253 253 253 253 253 253 253 253 253 253 253 253 253 253 253 253 253 253 253 253 253 253 253 253 253 253 253 253 253 253 253 253 253 253 253 253 253 253 253 253 253 253 253 253 253 253 253 253 253 253 253 253 253 253 253 253 253 253 253 253 253 253 253 253 253 253 253 253 253 253 253 253 253 253 253 253 253 253 253 253 253 253 253 253 253 253 253 253 253 253 253 253 253 253 253 253 253 253 253 253 253 253 253 253 253 253 253 253 253 253 253 253 253 253 253 253 253 253 253 253 253 253 253 253 253 253 253 253 253 253 253 253 253 253 253 253 253 253 253 253 253 253 253 253 253 253 253 253 253 253 253 253 253 253 253 253 253 253 253 253 253 
142 216 253 253 253 253 253 253 253 253 253 253 253 253 253 253 253 253 253 253 253 253 253 253 253 253 253 253 253 253 253 253 253 253 186 168 170 212 253 253 253 253 253 253 253 253 253 253 253 253 253 253 253 253 253 253 253 253 253 253 253 253 253 253 253 253 253 253 253 253 138 151 154 233 253 253 253 253 253 253 253 253 253 253 253 253 253 253 253 253 253 253 253 253 253 253 253 253 253 253 253 253 253 253 253 253 157 156 122 218 253 253 253 253 253 253 253 253 253 253 253 253 253 253 253 253 253 253 253 253 253 253 253 253 253 253 253 253 253 253 253 253 154 152 118 239 253 253 253 253 253 253 253 253 253 253 253 253 253 253 253 253 253 253 253 253 253 253 253 253 253 253 253 253 253 253 253 253 168 152 139 224 253 253 253 253 253 253 253 253 253 253 253 253 253 253 253 253 253 253 253 253 253 253 253 253 253 253 253 253 253 253 253 253 181 157 
224 253 253 253 253 253 242 210 253 253 253 253 253 253 253 253 253 253 253 253 253 253 253 253 253 253 253 253 253 200 253 253 253 253 206 163 200 253 253 253 253 253 188 253 253 253 253 253 253 253 253 253 253 253 253 253 253 253 253 253 253 253 253 253 253 214 253 253 253 253 190 196 235 229 253 253 253 235 190 253 253 253 253 253 253 253 253 253 253 253 253 253 253 253 253 253 253 253 253 253 253 253 253 253 253 253 214 253 164 253 253 253 253 253 168 196 253 253 253 253 253 253 253 253 253 253 253 253 253 253 253 253 253 253 253 253 253 253 253 253 253 253 242 244 173 253 253 253 253 253 184 204 253 253 253 253 253 253 253 253 253 253 253 253 253 253 253 253 253 253 253 253 244 253 253 253 253 253 188 235 253 253 253 253 253 253 231 198 253 253 253 253 253 253 253 253 253 253 253 253 253 253 253 253 253 253 253 253 253 253 253 253 253 253 173 184 
253 253 253 253 253 253 253 253 253 253 253 253 253 253 253 253 253 253 253 253 253 253 253 253 253 253 253 253 253 253 253 253 253 253 253 253 253 253 253 253 253 253 253 253 253 253 253 253 253 253 253 253 253 253 253 253 253 253 253 253 253 253 253 253 253 253 253 253 253 253 253 253 253 253 253 253 253 253 253 253 253 253 253 253 253 253 253 253 253 253 253 253 253 253 253 253 253 253 253 253 237 253 253 253 253 253 253 253 253 253 253 253 253 253 253 253 253 253 253 253 253 253 253 253 253 253 253 253 253 253 253 253 253 253 253 253 253 253 253 253 253 253 253 253 253 253 253 253 253 253 253 253 253 253 253 253 253 253 253 253 253 253 253 253 253 253 253 253 253 253 253 239 253 253 253 253 253 253 253 253 253 253 253 253 253 253 253 253 253 253 253 253 253 253 253 253 253 253 253 253 253 253 253 253 253 253 253 244 253 253 253 253 253 253 253 253 
253 253 253 242 253 253 253 253 253 253 253 253 253 253 253 253 253 253 253 253 253 253 253 253 253 253 253 253 253 253 253 253 253 253 226 144 166 253 208 198 253 253 253 253 253 253 253 253 253 253 253 253 253 253 253 253 253 253 253 253 253 253 253 253 194 253 253 253 253 253 210 146 161 177 212 175 253 253 253 253 253 253 253 253 253 253 253 253 253 253 253 253 253 253 253 253 253 253 253 253 253 244 253 253 253 253 253 188 192 156 200 206 253 253 253 253 253 253 253 253 253 253 253 253 253 253 253 253 253 253 253 253 253 253 253 239 253 253 253 253 253 253 253 253 171 127 134 220 253 253 253 210 253 253 253 253 253 253 253 253 253 253 253 253 253 253 253 253 253 253 253 214 253 253 253 253 253 253 208 253 253 152 190 235 253 253 253 253 253 253 253 253 253 253 253 253 253 253 253 253 253 253 253 253 253 253 253 253 253 253 253 253 253 253 246 190 
208 253 173 146 133 253 177 154 253 253 253 253 253 253 253 253 253 253 253 253 253 253 253 253 253 253 253 253 194 253 253 233 253 218 144 125 198 233 244 127 164 235 222 214 253 253 253 253 253 253 253 253 253 253 253 253 253 253 253 253 253 253 253 253 253 253 253 253 161 210 239 181 220 161 239 190 229 196 253 253 253 253 253 253 253 253 253 253 253 253 253 253 253 253 253 253 253 253 253 253 253 208 253 253 146 139 235 239 171 138 184 233 233 204 253 253 253 253 253 253 253 253 253 253 253 253 253 253 253 253 253 253 253 253 253 253 253 253 220 253 216 218 253 253 218 119 139 229 253 141 253 253 253 253 253 253 253 253 253 253 253 253 253 253 253 253 253 253 253 253 253 186 253 253 208 244 239 253 194 222 253 190 151 210 188 196 253 186 239 253 253 253 253 253 253 253 253 253 253 253 253 253 253 253 253 253 253 253 253 253 253 173 253 235 128 133 
202 253 253 139 136 194 229 181 198 253 253 253 212 253 253 253 253 253 253 253 253 216 233 239 154 253 253 138 175 253 188 253 218 171 212 134 194 253 253 164 133 188 239 170 222 244 253 253 210 253 253 253 253 253 253 196 253 253 206 253 171 204 253 173 157 244 253 210 144 179 231 229 168 146 253 253 138 204 200 237 210 253 253 253 233 233 253 253 253 253 253 229 194 253 181 242 253 147 216 231 163 204 253 152 141 166 253 253 198 139 164 253 220 157 139 196 186 253 253 200 226 218 253 253 253 253 253 253 253 253 214 177 253 177 179 253 200 214 177 186 146 235 244 224 253 170 151 198 253 152 136 151 206 253 253 196 233 200 253 253 253 253 253 253 253 200 237 194 246 235 147 253 253 170 151 156 214 253 183 141 253 253 181 152 216 253 154 200 147 253 253 214 226 244 253 253 253 253 253 253 253 163 253 204 196 253 192 159 253 253 139 168 253 229 136 141 
173 253 253 171 146 222 200 171 163 151 231 175 220 216 253 253 196 253 214 253 253 144 253 186 164 196 196 156 166 161 202 242 177 188 206 177 222 214 253 253 146 146 231 186 190 168 186 179 210 198 253 233 253 253 253 253 218 233 253 179 192 171 146 157 142 175 226 194 196 156 237 253 184 146 237 253 173 190 171 216 200 253 157 253 190 226 253 206 253 231 253 253 188 253 210 151 190 152 159 151 152 202 226 233 159 181 253 253 231 152 171 253 253 144 149 146 220 253 159 184 231 222 253 253 253 198 253 202 229 253 179 151 190 179 144 152 198 242 253 170 144 253 220 226 253 242 173 206 253 214 134 142 214 214 218 222 237 184 231 253 253 253 233 253 253 253 171 229 156 157 141 170 233 216 141 163 218 237 149 171 253 253 239 151 198 253 141 149 164 206 194 181 186 212 242 253 212 253 190 253 253 186 192 229 144 146 214 253 170 136 154 202 253 179 194 156 
177 253 253 253 183 161 233 253 233 196 253 161 253 253 210 253 157 253 188 206 253 198 188 253 183 156 253 170 152 224 200 244 253 253 179 170 233 253 253 253 170 152 253 226 175 220 253 186 184 253 253 253 204 186 242 253 253 226 239 183 204 224 210 159 157 163 253 253 253 194 253 253 253 253 253 253 224 253 216 214 144 154 196 253 164 253 239 253 253 192 214 253 196 194 253 231 204 244 163 154 202 253 253 253 161 168 253 253 253 171 149 253 253 253 151 147 220 202 200 253 229 253 253 183 253 142 235 253 152 253 253 200 244 198 206 244 253 253 218 214 154 235 253 253 253 175 198 253 253 253 244 151 179 239 253 253 253 231 253 253 253 175 233 229 194 253 196 204 218 163 253 253 253 198 175 166 198 194 253 253 253 253 253 253 253 253 253 253 253 253 235 151 253 194 253 253 181 214 233 196 253 237 151 253 163 226 246 253 208 149 152 229 224 253 253 168 
253 253 253 253 253 237 244 253 253 253 253 192 253 166 253 237 181 253 253 253 253 253 253 253 253 192 216 253 159 253 171 253 253 253 253 253 253 253 253 253 163 253 253 235 183 253 253 253 253 253 222 253 253 253 208 163 253 204 229 253 253 253 253 253 226 253 253 196 218 253 231 242 253 253 253 253 253 253 253 235 156 170 253 229 253 253 253 253 163 235 214 202 253 198 253 204 186 231 253 253 253 253 210 200 157 204 253 253 253 149 192 253 253 253 202 253 186 253 253 253 253 253 246 253 220 204 157 253 198 222 253 152 188 218 253 242 229 244 242 224 181 229 253 253 253 166 192 253 253 253 253 253 253 253 253 253 202 253 235 166 253 253 253 253 183 229 173 204 253 229 208 200 253 194 214 183 233 253 253 224 253 253 253 253 253 253 253 253 253 244 192 253 253 229 253 239 242 173 253 253 253 253 253 253 253 157 151 253 253 168 244 224 253 253 212 253 
253 253 253 253 233 218 253 253 242 198 184 253 235 216 253 253 253 253 253 235 208 253 253 253 253 253 253 253 226 214 233 253 253 253 253 253 253 253 168 224 170 253 253 183 233 253 253 237 253 253 253 253 244 186 220 168 253 253 171 253 237 253 253 253 253 253 253 242 222 164 157 253 253 218 186 168 253 253 224 222 206 253 253 253 253 253 253 253 253 253 186 152 253 214 253 253 253 253 253 244 253 253 253 200 216 235 253 253 173 163 200 253 253 253 253 253 253 253 253 253 239 253 224 188 229 253 253 253 253 188 253 253 253 253 239 179 196 253 235 204 253 253 253 186 166 161 253 253 253 253 253 253 253 220 253 253 224 253 204 149 253 171 237 253 253 253 253 226 253 253 161 177 253 253 152 156 253 253 204 231 204 206 253 253 253 253 253 253 253 214 253 253 202 200 253 171 253 253 253 253 253 253 253 253 253 233 151 253 253 218 196 206 239 253 253 253 
253 253 188 253 244 253 233 244 233 149 231 253 196 208 253 196 253 184 157 253 163 253 253 186 253 253 253 253 253 231 222 253 253 253 253 253 231 246 253 208 253 218 156 164 214 253 184 253 253 253 244 253 253 159 204 184 170 253 253 253 253 253 253 253 231 179 253 242 237 200 253 226 253 253 214 253 242 198 208 170 253 253 253 244 253 212 156 253 184 204 253 183 204 253 253 253 253 192 253 253 154 156 239 253 253 253 168 253 253 235 253 253 154 168 231 253 253 253 253 166 253 242 168 244 233 244 216 253 253 253 253 253 214 226 253 173 192 200 231 231 253 253 253 253 170 204 253 216 253 253 253 253 253 224 253 196 190 253 235 168 220 253 208 253 253 253 253 253 164 253 226 200 200 253 206 181 173 253 253 208 253 253 244 253 253 253 253 242 202 151 242 229 224 242 253 154 253 214 181 253 196 204 253 253 253 253 149 214 253 253 222 175 253 253 253 253 
220 166 170 253 244 253 171 231 231 212 253 253 237 196 253 220 214 208 168 253 253 210 253 253 253 253 253 226 253 244 157 188 226 253 244 226 206 231 229 253 231 184 163 198 212 156 242 253 235 164 253 218 229 198 157 253 188 253 253 253 253 253 159 229 253 218 173 184 242 198 166 210 220 229 253 253 194 239 181 210 253 253 204 226 242 210 239 253 224 156 192 200 214 253 253 253 253 194 204 253 224 239 214 196 235 253 253 246 229 237 226 222 177 222 224 220 253 253 218 253 253 253 156 253 253 170 218 222 242 253 253 253 253 156 253 253 163 222 198 253 198 200 246 233 242 208 208 220 233 253 253 202 163 192 161 181 242 253 181 210 253 208 202 157 253 253 253 253 208 235 253 224 173 183 242 194 214 204 229 253 253 233 220 214 253 253 231 235 186 175 168 161 192 253 253 253 253 210 170 196 253 163 253 253 184 253 253 179 192 253 222 229 222 253 253 226 
253 233 253 190 166 163 242 171 157 188 194 204 186 253 220 253 253 253 198 171 242 220 253 253 220 253 253 175 161 253 253 224 253 216 216 253 212 188 253 253 206 229 166 184 156 253 253 216 177 224 253 253 181 253 181 194 226 204 253 253 235 253 235 161 204 253 188 163 253 253 253 216 208 163 161 253 253 212 204 181 194 214 168 220 190 186 253 244 196 222 198 218 212 253 253 208 253 253 166 206 253 218 200 173 202 242 253 246 179 164 208 181 253 239 166 164 192 242 175 214 212 220 181 253 206 166 186 184 161 253 253 253 253 242 253 253 253 175 166 214 253 224 253 196 253 210 212 253 253 253 244 226 253 208 173 161 244 194 194 253 253 164 204 184 212 253 237 253 253 253 242 253 161 159 229 253 210 214 164 170 253 253 188 171 157 163 218 237 206 220 194 242 242 226 184 253 253 166 204 163 253 253 210 253 253 200 253 235 244 253 253 244 214 210 161 237 
186 226 177 253 253 233 226 253 239 212 216 253 214 202 170 212 253 168 208 253 253 239 200 253 253 218 220 253 208 179 194 233 253 253 253 253 253 188 192 200 253 253 253 244 235 170 173 194 231 208 177 229 253 214 202 196 253 253 253 253 253 253 253 253 171 198 220 253 253 253 253 231 253 253 253 253 253 253 253 253 200 159 200 202 171 244 212 226 244 253 170 173 253 222 253 253 253 253 253 175 170 222 186 235 253 253 253 253 253 253 253 253 253 253 253 253 253 184 170 186 166 206 253 253 253 253 218 210 198 220 253 253 253 253 253 183 229 253 253 253 253 253 253 239 231 253 253 220 204 253 237 192 253 253 253 253 253 253 196 253 253 246 253 210 194 253 253 253 253 253 239 253 253 253 253 231 202 244 253 239 231 166 253 253 246 216 164 163 188 253 253 210 190 220 192 220 253 204 253 244 253 253 253 184 253 233 184 253 226 253 244 253 253 244 253 253 
253 253 253 253 253 253 253 253 253 177 216 175 253 253 253 253 253 253 222 253 188 253 253 253 253 253 246 173 194 173 253 253 200 253 253 253 253 253 253 253 253 253 253 253 253 253 183 166 194 244 253 253 253 206 253 224 168 253 253 253 253 253 235 208 184 216 253 253 253 253 253 253 253 253 253 253 253 253 253 253 253 253 253 253 253 253 253 253 253 253 253 214 208 253 253 253 253 218 233 253 242 253 253 253 253 237 253 253 216 164 237 253 253 224 168 164 184 253 253 253 253 253 235 171 212 253 253 253 253 253 253 244 253 253 239 218 253 200 253 253 253 253 253 253 253 229 253 253 253 253 253 253 253 253 253 253 253 188 170 202 202 253 253 253 253 253 216 242 253 253 253 253 204 196 253 253 253 253 253 253 253 253 253 186 253 253 253 253 253 216 231 253 253 253 218 233 244 253 253 253 253 253 253 226 253 253 253 235 194 218 188 253 253 253 233 253 
253 253 253 253 253 253 253 253 226 253 253 253 253 253 253 220 253 253 253 200 253 253 253 253 253 196 224 253 253 253 253 229 253 253 239 253 253 253 253 204 253 253 253 253 242 253 253 253 253 198 253 177 170 226 253 253 253 253 229 253 224 253 253 202 253 253 253 253 253 253 231 214 253 253 253 168 233 253 253 253 253 253 253 253 253 253 253 198 161 218 253 253 253 235 226 212 253 253 253 166 184 253 253 253 253 253 253 253 253 253 253 242 253 253 253 253 253 233 192 237 253 253 253 224 239 216 253 239 253 253 253 253 253 253 253 188 175 253 253 253 188 253 253 253 253 253 253 253 253 253 253 253 253 253 212 164 210 253 253 253 253 206 237 237 198 246 253 253 253 253 253 253 212 253 253 253 235 253 253 253 253 253 253 253 253 253 253 231 253 253 253 171 253 253 253 253 253 198 253 200 214 253 253 253 226 210 253 253 253 237 253 253 253 253 253 253 
253 253 253 253 253 253 253 253 253 253 181 171 253 253 253 253 253 253 253 253 253 253 253 253 253 253 204 253 253 253 253 253 220 253 253 253 253 253 253 253 253 253 253 224 253 253 253 194 177 253 253 253 253 253 253 253 212 253 253 253 253 242 186 253 253 253 253 253 253 253 253 253 253 253 253 253 253 253 235 190 253 253 253 196 253 253 253 253 253 253 253 181 253 253 253 253 214 253 253 253 253 239 181 253 253 253 253 253 253 253 253 198 164 253 253 218 173 253 253 253 253 253 237 253 253 253 253 253 253 253 253 253 184 239 253 253 253 253 253 253 253 253 196 253 253 253 253 175 226 253 253 253 208 253 253 253 253 226 168 253 253 218 253 253 253 253 253 253 253 253 253 253 253 253 253 253 253 253 253 253 253 253 253 253 253 235 242 253 253 253 253 253 253 253 210 242 253 253 253 253 253 253 253 253 253 253 253 237 222 253 253 253 253 253 253 253 
253 253 253 253 253 253 253 253 253 253 253 253 253 253 235 163 235 253 253 253 253 253 226 237 253 253 253 253 253 253 253 253 253 253 253 253 253 253 253 253 253 190 253 253 253 253 253 253 253 253 253 184 239 253 253 253 253 253 253 253 253 253 235 206 253 253 253 253 253 253 253 253 244 175 253 253 253 253 253 253 253 253 253 253 214 253 253 253 253 253 253 253 253 253 253 253 253 253 173 253 253 253 253 253 253 253 253 253 212 253 253 253 253 253 253 253 253 253 253 253 163 233 253 253 253 253 253 253 253 253 253 253 253 253 253 253 253 253 224 253 253 253 253 253 242 253 253 253 253 253 253 218 229 253 253 253 253 253 253 253 253 253 253 253 253 253 253 253 253 253 253 253 253 190 253 253 253 253 253 253 253 253 253 253 253 253 253 253 173 210 233 253 253 253 253 253 253 253 253 253 253 253 253 192 239 253 253 253 253 253 253 253 253 253 253 253 
253 253 253 253 222 253 253 253 253 161 253 253 253 253 253 253 253 253 253 253 253 253 214 226 253 253 253 253 216 233 253 253 253 242 226 244 253 253 253 253 253 253 253 253 253 226 253 253 253 253 237 190 204 253 253 253 253 233 164 220 253 253 253 253 253 253 253 253 253 253 253 253 253 235 233 242 253 253 233 253 253 253 253 253 253 253 253 218 242 253 253 253 253 253 253 253 253 253 226 253 253 253 253 237 253 253 253 233 231 175 231 239 253 253 246 253 253 253 253 242 204 253 253 235 253 253 253 253 253 253 253 253 253 239 210 253 253 253 253 224 253 253 253 237 235 233 235 233 253 253 253 253 253 253 253 253 190 233 253 253 253 253 218 253 253 253 253 253 253 233 239 253 253 233 194 239 253 253 235 198 246 253 214 184 253 253 253 253 198 253 253 253 253 253 253 253 253 253 253 253 253 253 253 253 253 253 253 253 253 179 253 253 253 253 212 204 
253 226 253 253 181 246 253 253 226 192 206 224 253 253 253 253 235 168 161 173 224 244 244 181 253 253 253 253 206 253 253 253 233 190 253 253 253 253 253 253 202 220 253 253 216 237 216 231 253 253 253 239 175 168 166 200 220 224 210 224 253 253 253 253 253 253 253 253 244 226 253 253 253 253 253 253 253 226 246 253 253 239 233 253 253 253 226 164 190 208 206 186 220 253 222 253 253 253 253 253 253 253 253 208 231 253 208 233 222 233 206 253 253 253 239 198 253 253 253 253 233 237 237 242 253 253 216 170 208 253 253 253 253 253 220 253 253 253 206 175 246 233 226 220 200 208 170 210 239 214 181 210 253 253 253 212 168 208 237 253 253 253 204 159 184 239 253 253 206 198 253 253 253 226 235 212 208 212 233 181 186 224 253 171 206 242 244 242 253 253 214 237 214 214 253 253 253 237 200 206 210 253 253 214 235 253 253 253 226 216 253 253 253 194 218 253 
253 177 253 206 192 253 253 253 253 210 253 253 253 244 253 242 253 218 204 253 253 208 179 253 253 253 253 216 212 183 161 210 200 253 253 246 246 222 212 204 208 253 253 253 218 183 222 233 253 253 253 242 192 204 253 242 192 159 166 216 246 253 253 253 212 170 184 198 222 253 253 253 253 253 233 208 224 237 253 206 235 229 231 204 246 253 253 184 166 206 253 235 253 216 220 253 253 210 253 253 210 237 194 198 253 253 202 235 244 253 246 253 253 253 206 183 253 253 253 253 233 224 253 231 179 239 235 190 253 253 253 253 202 220 224 233 253 253 222 233 237 220 242 253 226 253 253 242 253 253 239 214 253 253 253 235 190 166 206 239 212 253 231 168 242 253 253 224 220 220 253 244 216 253 237 229 242 212 253 253 212 208 253 200 192 226 253 253 253 253 253 235 183 179 216 231 253 253 190 220 253 253 235 253 253 253 253 202 194 235 200 218 206 237 253 253 
237 226 253 212 253 226 226 253 253 253 214 253 253 253 253 253 216 229 253 253 253 202 149 216 235 253 229 218 253 233 242 253 237 253 253 253 239 231 253 218 231 253 253 216 242 253 200 242 253 253 253 242 202 253 253 253 210 164 253 239 253 253 253 226 233 246 253 253 237 253 253 253 253 253 253 231 253 253 253 210 216 253 253 253 253 253 253 253 253 253 253 246 220 253 253 253 220 220 253 242 253 239 253 253 237 253 229 253 253 253 253 253 253 253 253 222 210 253 253 253 253 237 253 253 253 253 253 175 235 224 253 253 159 220 244 253 253 239 253 253 226 216 239 253 253 253 253 253 229 224 253 253 253 253 253 253 198 154 212 253 253 253 198 214 233 253 253 192 202 253 253 253 246 244 235 214 253 216 244 253 253 253 224 235 244 214 242 253 253 253 239 222 233 239 253 253 253 224 231 253 253 233 186 192 233 253 253 208 220 224 226 253 253 229 253 253 
253 253 253 253 253 253 253 253 253 253 242 231 242 253 253 253 218 253 253 253 231 233 253 253 237 253 253 253 253 253 253 253 253 253 253 253 253 253 253 253 253 253 253 253 253 210 235 253 253 253 253 253 253 253 253 253 253 253 253 253 237 253 253 253 253 253 253 253 244 253 253 253 253 253 253 253 253 253 253 253 253 253 253 253 253 253 218 253 253 253 253 229 253 253 253 220 216 253 253 253 253 253 253 253 212 253 253 253 253 253 253 253 253 253 206 210 253 253 253 253 253 212 224 253 253 253 244 183 226 253 242 196 222 253 253 253 253 253 253 253 222 253 253 253 253 253 253 253 253 253 231 253 253 253 253 253 253 253 253 253 253 253 253 242 253 253 216 216 235 253 253 253 253 253 253 253 253 253 253 253 253 253 253 253 253 253 253 253 253 253 253 200 253 253 253 253 220 253 253 253 242 239 198 253 253 253 253 253 253 253 253 253 253 253 253 253 
253 253 253 253 253 253 253 253 253 253 253 253 253 253 253 253 253 253 253 253 253 253 253 253 253 253 253 253 253 253 253 253 253 253 253 253 253 253 253 253 253 253 253 253 253 253 253 253 239 235 253 253 253 253 253 253 253 253 253 253 253 253 253 253 253 253 222 253 237 253 253 253 253 253 253 253 253 253 253 253 253 253 253 253 222 253 242 224 253 253 253 253 253 253 253 253 253 231 226 253 253 253 253 246 253 253 253 253 253 253 253 253 253 253 253 253 253 253 253 235 218 253 235 194 208 235 224 226 237 253 253 253 253 253 235 239 253 253 253 253 253 253 253 253 253 253 253 253 253 253 253 253 253 253 253 239 253 253 231 253 242 216 253 253 253 253 253 253 253 253 253 253 253 253 253 253 253 253 253 253 253 253 253 253 253 253 253 253 253 253 253 253 253 253 253 253 253 253 253 253 253 253 253 253 253 253 253 253 253 253 253 253 253 253 253 253 
253 253 253 253 253 253 242 231 253 253 253 253 253 239 242 253 253 253 244 253 253 253 253 253 253 253 253 253 253 253 253 253 253 253 253 253 253 231 253 229 253 253 253 253 253 253 253 253 253 253 239 235 253 253 216 218 253 244 253 253 253 237 253 253 253 253 253 253 253 253 253 253 226 214 212 212 233 253 253 253 253 253 253 253 253 253 253 220 253 253 222 253 253 253 239 253 253 253 253 253 253 253 253 253 253 253 253 253 239 237 233 198 231 222 253 253 253 253 253 253 253 253 253 253 253 253 253 253 253 253 244 253 253 253 253 253 253 253 253 253 242 237 244 253 253 253 253 224 202 224 253 253 253 253 253 253 253 253 253 253 253 253 253 244 253 253 253 253 253 253 253 253 253 253 235 222 253 237 253 253 253 253 253 253 239 253 253 242 253 253 253 253 253 253 253 253 253 253 253 253 253 253 253 253 253 253 253 253 253 253 253 231 253 253 253 253 
253 253 253 235 253 242 235 253 253 244 244 242 231 226 202 253 253 253 253 253 244 253 253 253 253 233 206 218 226 222 226 253 253 253 229 237 253 253 253 244 253 222 253 253 253 214 229 242 229 212 206 253 253 253 253 253 253 253 253 253 242 237 231 233 231 253 244 253 253 253 253 242 253 253 253 244 239 204 253 253 242 233 229 218 204 202 216 253 253 253 253 253 253 253 253 242 224 226 253 253 253 253 253 233 244 253 253 253 253 233 253 214 224 253 253 253 239 253 253 246 222 214 253 253 253 253 253 253 253 253 253 242 229 235 253 253 253 253 253 224 253 246 253 253 253 253 244 253 224 246 253 253 253 253 253 237 239 244 237 253 253 253 253 253 253 253 253 231 253 253 242 253 244 226 233 253 235 253 253 253 253 253 253 253 253 253 222 253 253 253 253 253 244 218 218 253 253 253 253 253 253 253 253 253 253 253 226 231 253 224 196 224 231 224 237 253 
222 220 200 233 235 235 226 210 200 224 200 202 179 175 200 190 186 183 216 222 253 231 218 216 231 231 253 253 253 239 222 253 253 253 224 216 202 206 226 235 224 231 244 210 204 224 242 253 222 200 192 206 204 226 253 253 253 253 239 216 242 231 239 233 233 253 253 253 239 226 222 202 204 231 239 226 210 220 235 253 224 253 244 229 198 186 194 210 239 253 253 253 253 253 235 253 229 253 253 224 253 253 253 242 237 226 253 224 196 224 235 222 210 204 242 224 218 253 237 235 210 173 177 210 242 231 253 253 253 253 244 235 216 253 253 253 253 231 253 253 235 226 229 242 196 235 222 214 208 200 214 200 179 242 244 233 186 196 202 239 253 253 253 220 216 253 216 226 208 242 253 253 253 242 253 253 253 253 224 204 210 229 214 222 210 210 237 194 171 218 226 212 186 196 206 216 231 222 224 198 200 196 190 181 222 253 253 253 253 239 229 253 253 244 204 220 
190 210 253 253 253 242 253 226 253 253 233 239 233 196 200 210 210 194 192 198 184 194 208 190 198 175 170 179 194 183 170 188 163 170 149 202 220 218 253 239 253 237 253 253 253 235 226 253 253 235 183 190 192 218 196 194 204 212 208 184 177 216 226 194 204 194 171 171 183 157 163 163 220 229 235 231 253 242 253 253 244 242 222 229 229 210 194 192 177 198 188 181 202 208 196 184 206 196 224 210 192 184 161 170 171 157 163 175 210 242 237 244 253 253 253 253 253 231 253 253 253 214 198 202 200 198 183 204 206 202 194 184 208 186 224 231 206 179 168 173 164 177 144 200 224 253 239 222 239 253 239 235 237 239 239 226 216 188 173 198 196 202 194 192 214 194 186 179 181 190 206 188 170 175 170 175 192 170 151 170 204 233 253 253 253 253 253 253 235 253 233 214 181 183 196 186 200 196 200 196 184 196 194 177 192 198 177 204 186 186 170 157 171 177 152 152 
34 34 28 32 41 41 42 49 49 60 63 59 55 64 54 52 61 56 61 53 53 63 51 46 61 60 47 51 48 55 45 40 39 47 41 37 35 40 37 39 42 51 57 54 55 52 57 58 54 62 55 57 59 59 72 49 50 45 49 49 50 49 52 60 47 46 41 44 45 39 30 33 30 29 28 30 39 37 41 56 52 46 56 61 50 58 61 72 61 53 52 48 45 52 46 51 49 54 58 42 52 41 41 41 44 35 32 29 26 26 29 30 37 35 39 45 48 54 52 47 61 54 61 53 61 56 62 48 55 46 53 48 51 48 43 51 51 50 41 39 35 41 36 25 23 30 30 35 37 35 44 54 42 52 49 57 58 59 56 52 53 55 62 62 50 46 51 41 45 43 49 45 51 47 49 42 35 32 34 29 25 27 29 34 41 38 44 45 50 49 51 56 58 58 51 56 57 53 53 63 61 66 51 58 53 45 49 52 45 45 42 38 35 36 30 30 
60 79 124 147 147 127 116 99 93 86 77 67 69 65 55 52 61 54 55 59 59 61 53 56 59 60 65 61 70 66 49 52 51 51 48 47 52 76 127 134 142 118 100 101 118 105 92 90 87 72 69 63 63 60 64 58 59 60 66 59 64 63 66 74 73 69 66 62 55 64 62 58 48 79 114 130 114 115 108 103 107 84 79 78 76 82 64 73 62 58 64 62 57 66 69 69 76 66 72 87 96 93 87 92 72 54 61 56 64 57 107 105 95 99 84 91 76 67 68 66 60 64 67 53 64 63 53 70 65 65 63 56 74 71 78 71 84 85 90 81 65 52 54 51 49 56 62 78 68 76 63 60 58 62 54 63 53 57 48 60 51 54 62 50 51 53 55 56 54 62 58 71 63 61 57 55 54 48 44 49 49 60 107 108 118 124 97 87 71 68 58 70 62 55 64 62 55 60 54 54 67 61 57 60 60 65 66 67 63 65 56 54 53 62 60 58 
