P2
216 36
255
16 17 20 22 23 24 28 28 29 30 30 32 33 34 35 33 32 36 39 34 26 26 29 30 30 31 29 29 29 25 25 22 17 18 16 15 14 16 18 22 21 27 27 29 32 29 32 32 34 35 35 35 34 32 38 30 27 26 29 30 30 31 32 30 27 27 23 19 19 18 17 14 15 13 17 20 21 23 27 29 30 30 33 34 34 36 36 33 32 36 35 30 28 27 28 28 29 32 28 26 24 26 24 22 17 18 17 16 14 17 16 21 24 24 24 27 30 32 35 33 35 36 35 30 35 36 33 32 30 25 21 23 24 27 25 26 26 26 27 23 17 18 16 18 15 17 17 25 27 24 29 29 29 32 36 35 34 35 36 32 35 34 33 32 29 27 22 23 24 25 25 28 26 25 24 26 18 18 18 17 15 15 19 24 27 26 29 27 29 30 34 30 32 35 39 32 34 36 38 32 26 21 25 25 25 25 25 28 24 27 28 26 20 20 15 15 
13 13 13 17 18 21 22 22 22 20 23 24 28 29 29 28 23 32 32 25 19 21 22 22 25 23 22 22 19 18 16 15 14 14 12 12 13 12 15 15 17 18 21 23 23 24 26 27 29 28 29 27 24 32 31 26 23 20 20 22 24 23 21 20 20 18 13 13 13 14 12 11 12 12 13 17 19 20 21 24 24 25 24 27 30 31 29 28 25 30 30 28 22 20 19 19 24 21 18 20 17 16 15 13 15 14 12 12 12 13 15 17 18 21 22 24 23 23 23 25 28 29 31 29 25 27 29 24 22 20 18 19 22 23 23 22 17 16 14 13 13 12 12 13 12 13 14 18 20 22 22 22 23 22 23 25 27 28 30 25 25 26 26 24 21 20 20 18 21 22 25 22 18 14 15 17 14 14 16 14 12 13 14 18 21 20 23 22 22 22 23 24 27 28 25 25 26 30 30 25 23 22 21 21 23 23 22 21 16 16 17 15 15 15 13 14 
8 9 10 10 11 12 12 16 17 16 19 19 16 17 17 20 21 22 15 17 15 13 13 12 11 11 12 12 9 8 10 8 9 11 7 9 8 9 10 11 10 10 12 16 17 17 19 17 18 16 18 21 21 22 17 18 15 12 12 10 11 10 12 10 10 9 9 9 9 9 8 7 9 10 9 10 11 12 12 13 15 17 20 20 19 19 18 19 20 20 20 18 15 11 10 10 11 11 11 10 9 9 10 11 10 9 9 7 9 10 8 10 10 12 13 13 15 17 18 20 20 19 19 21 23 18 20 18 14 11 11 12 11 12 10 11 10 9 10 10 10 8 9 7 8 9 8 9 10 12 13 12 13 16 18 17 20 21 17 20 21 22 17 19 16 14 10 10 11 10 10 11 9 9 9 10 10 10 8 7 8 8 9 9 10 12 13 13 17 15 17 18 18 18 18 19 21 22 18 17 15 13 12 11 12 10 12 12 10 10 9 10 10 9 8 7 
6 8 9 8 9 10 13 15 16 16 19 19 21 20 21 25 23 18 20 19 18 18 17 16 17 16 17 13 12 13 10 9 7 7 7 5 6 8 8 8 9 11 13 16 15 18 20 22 18 22 21 24 23 17 17 17 17 17 15 16 17 17 16 13 12 11 10 9 8 7 6 6 6 6 8 8 10 12 13 15 16 17 18 19 18 22 20 27 25 18 16 15 19 17 18 15 17 17 15 12 12 12 10 9 9 8 6 5 7 7 9 9 9 12 13 15 17 17 19 20 19 22 20 26 24 17 14 19 19 18 16 14 18 19 16 14 12 12 11 10 8 8 6 5 6 8 8 8 9 11 13 13 17 19 17 16 18 20 20 26 24 17 17 21 22 19 18 15 17 16 17 15 12 12 12 10 9 8 6 5 7 7 9 8 9 11 12 12 17 17 18 20 17 17 22 24 23 19 18 22 24 20 20 18 15 16 16 14 13 12 10 10 9 7 6 6 
7 7 8 9 8 9 10 13 14 15 16 19 18 15 16 15 16 17 14 14 13 14 12 13 13 12 12 12 12 10 11 10 8 7 6 6 5 7 8 9 9 9 11 12 14 17 18 18 17 16 16 17 16 15 13 13 13 12 12 12 11 13 12 12 10 11 9 10 8 7 5 6 6 7 7 8 9 10 10 10 13 15 13 13 18 19 16 17 14 13 13 14 13 12 12 12 13 13 11 11 10 10 9 9 8 5 7 6 6 7 7 8 9 10 10 11 13 16 15 15 15 16 16 18 13 14 12 15 12 9 11 12 13 12 11 11 10 9 9 8 8 7 7 6 8 8 9 9 9 9 11 12 13 14 15 14 17 17 15 17 13 13 12 12 12 12 12 13 13 11 10 12 12 10 9 8 8 5 7 6 7 7 9 9 9 10 11 13 14 15 17 16 17 16 14 16 14 14 13 14 13 12 12 13 14 13 11 12 12 10 10 9 8 7 8 6 
7 7 8 9 9 10 9 10 12 11 11 12 12 13 13 13 12 12 11 14 13 12 14 13 12 12 12 12 10 10 9 8 7 7 8 8 7 7 8 7 9 9 10 10 13 12 11 12 13 15 14 13 16 15 13 13 15 13 14 15 13 12 13 11 10 10 9 8 8 7 7 8 7 6 6 8 8 11 9 9 11 11 11 13 13 16 14 13 13 13 12 14 15 13 14 15 13 14 14 12 10 9 8 8 8 8 7 7 6 5 8 8 9 9 9 10 9 12 12 12 13 13 13 13 12 12 12 14 12 13 14 13 12 15 16 13 10 9 9 8 8 7 7 7 6 7 8 8 9 10 11 10 11 11 12 13 12 12 13 13 14 11 12 12 12 13 12 11 14 13 12 13 9 9 9 7 7 7 8 7 7 6 8 8 9 10 9 10 13 10 11 11 12 12 12 11 11 10 11 12 12 12 14 12 13 12 12 12 11 9 8 8 7 6 8 7 
9 8 8 9 9 9 10 10 11 12 13 12 12 15 16 13 17 14 13 15 16 14 12 14 14 13 11 15 13 13 9 9 9 8 9 10 9 8 8 9 10 9 11 11 10 12 13 12 12 14 13 15 15 14 12 14 16 15 13 15 12 12 12 15 14 14 9 9 9 8 9 10 10 9 8 8 10 11 13 11 10 10 12 13 12 14 18 17 15 16 12 12 16 19 14 16 12 12 12 12 13 13 11 10 8 8 8 9 9 10 8 7 9 12 12 12 12 11 11 14 12 15 16 20 15 13 11 14 18 19 19 12 13 12 14 15 13 12 10 9 10 9 9 9 9 9 7 7 9 11 12 13 11 9 11 12 11 15 17 15 14 13 13 16 17 16 16 11 14 14 13 14 13 13 10 9 8 10 12 9 9 8 8 8 9 10 10 9 12 11 11 14 13 14 16 16 14 15 12 14 18 17 13 12 14 12 12 13 13 12 9 9 9 9 12 9 
19 21 17 13 12 13 12 14 11 13 12 12 16 18 23 18 17 18 17 17 17 20 17 21 19 18 15 19 14 11 12 12 15 19 20 20 18 20 18 14 12 13 12 12 13 13 12 12 15 18 19 23 22 18 17 16 20 18 24 22 23 16 15 16 12 13 11 13 15 18 18 19 18 18 17 16 12 14 12 12 13 13 12 11 14 12 18 20 21 19 16 14 17 19 28 27 25 16 17 14 13 12 12 12 13 16 19 18 19 15 16 14 13 11 14 12 12 13 13 12 12 13 15 18 18 15 15 15 18 17 20 22 21 19 15 15 13 11 13 14 13 14 18 19 17 15 15 14 11 12 9 12 13 12 13 13 13 13 16 13 13 13 14 19 17 16 17 17 22 20 15 14 12 10 11 13 15 15 19 17 19 17 16 12 11 14 13 12 12 11 12 14 14 16 17 19 14 15 16 15 17 18 16 18 18 17 18 16 13 10 10 15 14 19 20 18 
23 23 22 19 16 17 20 18 18 17 15 16 15 17 21 24 25 26 30 33 27 24 26 21 22 19 24 21 17 16 17 16 17 22 23 23 24 24 22 22 17 17 17 18 14 18 18 15 16 19 20 22 25 25 24 23 24 24 25 25 23 22 20 18 16 15 14 13 18 23 19 21 21 22 24 22 20 17 20 16 17 18 19 14 17 18 17 21 24 26 27 20 23 26 25 30 25 22 19 18 15 13 14 13 20 21 22 21 21 24 23 24 18 16 16 17 18 16 16 14 18 19 19 22 23 21 27 29 29 24 24 29 22 19 20 16 14 12 11 13 17 18 17 18 20 23 24 20 16 17 19 17 19 15 15 14 17 18 24 24 24 23 20 27 27 28 22 25 23 21 21 16 13 12 13 15 16 21 20 19 21 24 22 21 16 17 19 18 18 16 15 17 18 16 23 25 22 24 27 30 29 27 27 22 25 26 23 19 15 14 17 16 18 17 22 21 
22 23 25 24 28 28 29 31 32 28 25 29 28 24 25 26 28 26 24 26 30 32 23 28 28 31 25 24 28 22 20 20 21 20 20 21 22 23 24 24 26 27 29 33 31 29 27 32 27 30 25 23 25 24 25 28 27 29 28 29 28 30 29 29 26 26 20 19 20 19 18 20 22 23 22 26 27 27 31 36 31 26 29 31 25 26 26 27 26 27 25 27 32 29 30 29 28 34 33 32 28 24 18 21 19 19 18 18 22 22 22 22 24 28 30 27 28 31 32 32 28 24 24 23 29 24 26 27 34 32 33 28 30 31 31 31 24 22 19 22 18 19 19 20 20 19 24 25 24 25 31 30 29 30 26 28 26 23 24 25 25 25 24 25 32 30 28 26 30 31 26 30 24 21 19 20 19 17 19 21 21 21 23 27 25 29 31 34 32 30 26 26 27 24 24 25 26 24 22 26 26 32 29 26 26 27 27 29 24 24 22 19 19 19 21 20 
27 24 25 22 25 30 29 30 35 30 29 31 32 34 26 23 25 25 24 27 25 23 32 34 40 36 40 35 37 31 26 25 24 22 22 25 29 27 28 19 29 33 32 31 34 33 28 34 35 35 30 25 27 22 23 27 26 30 34 32 37 37 39 34 35 26 29 24 21 20 22 28 27 28 26 21 26 27 31 30 34 36 34 32 35 33 33 26 27 23 21 27 26 31 33 33 36 38 36 35 31 32 31 22 20 21 24 24 24 24 25 22 27 31 28 33 32 36 33 29 35 31 31 31 24 23 24 25 28 27 33 35 35 37 39 37 28 33 30 23 19 21 23 24 24 28 25 25 29 29 32 34 35 34 33 30 32 33 34 29 28 24 25 29 29 29 33 36 33 36 37 35 30 31 32 23 20 20 23 24 25 24 23 26 27 27 31 37 36 33 33 31 32 32 29 30 28 25 23 27 29 32 29 32 34 37 38 37 32 35 27 22 21 25 24 30 
37 33 30 30 36 37 41 40 47 46 43 38 40 39 35 35 29 23 23 28 36 41 44 41 43 47 45 45 45 40 37 31 34 34 35 35 36 35 30 29 31 37 41 40 45 47 41 41 41 40 36 30 30 23 22 26 34 41 43 41 45 45 44 47 42 38 39 36 31 31 32 33 37 35 32 31 34 38 42 43 46 45 40 41 41 40 40 35 28 22 22 29 33 45 45 46 43 45 45 42 44 33 35 30 32 26 30 32 34 32 36 36 36 41 42 45 48 47 44 45 40 41 41 39 29 22 23 26 35 45 48 45 45 48 45 43 36 37 36 31 32 31 29 34 32 32 39 37 37 40 44 44 45 46 47 46 43 41 41 35 27 24 22 27 40 46 43 46 47 46 45 41 39 41 33 28 30 31 32 34 36 33 36 37 34 40 40 44 45 47 44 42 37 40 37 36 30 24 23 27 37 41 37 41 44 44 44 42 40 40 38 35 33 35 34 37 
41 39 37 41 38 44 45 49 51 51 50 51 49 49 45 42 34 32 30 35 38 51 52 48 50 50 51 51 47 48 46 41 44 41 43 44 46 41 43 42 44 42 42 46 49 51 51 52 53 47 42 41 36 30 32 40 37 48 51 53 50 48 46 46 50 46 43 41 46 43 43 45 44 42 45 41 39 45 44 53 50 51 53 53 53 51 40 41 32 31 26 31 39 51 55 54 46 52 51 51 49 44 46 41 42 39 41 41 41 44 45 49 44 38 47 51 52 52 51 57 52 51 48 41 29 26 24 26 35 48 55 55 51 51 51 53 49 44 42 41 41 45 40 41 42 45 47 40 36 42 43 47 48 51 52 52 51 50 49 38 36 30 28 32 42 50 51 51 52 52 51 49 51 46 41 40 38 39 41 43 44 41 39 41 38 39 45 48 51 51 54 51 51 50 45 41 37 30 32 32 41 50 51 51 48 54 52 49 49 47 44 40 39 43 47 44 
58 56 55 57 53 53 49 49 53 57 58 58 50 51 48 45 37 28 30 41 47 51 54 52 50 49 48 49 48 48 38 43 47 47 55 59 55 56 58 55 52 54 55 56 52 56 54 55 53 51 47 45 35 27 28 42 48 49 52 51 52 49 50 55 51 44 32 38 45 55 51 56 63 59 57 56 53 52 51 53 49 54 57 58 56 51 50 45 34 23 28 36 48 53 53 54 48 51 51 49 49 47 31 39 42 48 45 53 56 61 61 51 50 46 46 47 51 58 55 56 52 52 48 47 35 28 31 35 46 50 55 52 54 53 51 51 50 46 41 41 41 44 52 48 50 55 53 51 44 43 46 54 50 58 59 52 52 50 47 44 30 25 29 37 44 49 52 51 53 51 50 49 50 46 39 40 47 48 48 47 53 57 55 57 51 48 50 54 55 60 56 58 54 54 48 41 35 24 27 35 45 51 55 51 51 50 49 49 49 46 39 47 45 45 48 54 
55 57 51 55 56 55 54 54 56 57 61 57 55 50 48 37 33 28 29 37 44 49 51 49 53 55 48 48 52 46 43 51 54 60 52 65 64 62 60 51 56 52 49 50 54 57 54 55 54 54 49 42 31 28 28 41 47 49 49 52 54 51 46 54 54 52 50 57 56 55 52 55 62 60 58 55 50 50 48 45 51 53 54 51 51 45 45 38 32 32 33 38 43 51 47 48 52 51 53 54 52 45 49 53 52 56 55 59 59 60 58 51 45 50 52 52 51 51 53 51 51 45 43 39 31 28 35 34 46 49 51 50 51 53 55 49 47 50 45 42 45 50 56 58 53 51 52 53 50 54 56 52 49 55 51 51 51 47 43 35 30 27 33 36 41 45 49 52 57 51 52 54 51 47 32 38 45 50 59 64 54 52 53 53 54 58 52 56 54 55 60 57 50 50 45 34 33 28 29 36 43 46 53 48 53 51 46 51 50 49 38 45 49 52 53 59 
62 63 63 61 57 54 57 64 65 63 62 56 49 45 43 40 26 25 23 32 39 41 44 43 51 49 51 51 53 55 55 62 59 61 63 64 61 63 61 63 62 60 58 53 60 61 59 54 49 49 46 41 32 23 30 34 30 38 45 48 50 47 52 57 56 54 53 62 67 66 66 62 64 57 57 56 58 53 56 54 59 60 52 48 51 43 43 41 31 26 33 31 33 39 38 46 51 53 52 58 60 50 56 61 64 64 62 64 62 64 56 59 57 60 57 59 58 54 53 51 50 42 41 43 31 28 34 33 37 42 45 41 52 51 52 54 55 48 46 61 62 60 62 62 64 61 61 58 60 57 58 58 58 52 54 46 49 40 43 43 29 23 29 40 33 38 43 52 53 49 55 52 52 49 56 61 59 59 63 54 60 61 63 60 63 59 55 61 58 59 57 50 48 43 41 41 29 24 29 33 36 40 41 45 46 51 52 55 51 52 57 55 60 61 63 63 
50 48 47 47 48 51 53 52 57 57 61 53 51 48 44 40 31 24 24 22 32 43 48 42 49 51 56 52 52 47 50 53 53 60 51 59 54 57 52 49 50 41 44 51 56 55 57 56 47 47 45 41 31 22 18 29 35 44 47 47 50 49 52 49 51 44 41 48 52 58 54 55 54 51 45 47 45 43 45 54 58 56 51 50 46 43 50 41 31 21 26 32 33 46 50 46 50 49 54 51 50 44 45 49 52 54 51 50 43 44 46 51 48 42 46 53 51 55 51 46 47 41 48 41 29 24 26 28 35 44 47 46 49 54 51 47 53 51 50 53 56 50 49 46 45 41 51 53 53 53 52 52 53 56 53 51 49 44 44 44 36 28 24 22 31 43 40 42 53 52 52 53 46 45 46 53 61 55 49 51 51 48 42 45 45 52 50 52 52 56 55 52 48 43 46 45 27 28 20 25 30 42 41 47 45 53 54 52 48 47 50 52 51 54 55 51 
56 51 55 54 55 57 49 55 53 51 50 49 49 46 46 38 29 29 24 30 27 40 48 51 50 51 48 47 43 40 48 50 50 52 51 55 53 51 48 51 47 48 51 46 52 50 51 47 51 51 45 41 39 32 31 29 41 39 49 55 51 48 50 44 46 43 36 51 55 48 51 56 56 54 49 45 48 47 49 49 49 49 51 53 52 49 50 42 38 29 24 35 35 42 47 51 52 48 54 46 44 42 43 46 47 55 56 53 53 53 55 54 52 47 49 56 51 51 52 53 49 45 43 44 35 30 23 29 30 42 51 50 52 54 55 51 45 42 42 51 53 58 53 55 60 57 57 56 57 56 52 51 51 51 51 45 46 46 44 39 30 27 23 29 32 35 42 45 51 58 53 53 53 41 44 46 53 56 54 57 58 62 58 59 59 53 50 51 56 50 49 47 45 45 43 41 29 23 18 25 30 41 45 51 55 47 51 53 45 45 40 45 53 56 58 55 
42 46 41 35 33 35 31 30 49 46 57 56 54 54 52 51 42 30 23 26 34 38 43 52 56 61 48 45 33 36 40 37 48 46 39 39 42 43 36 32 35 40 37 35 48 52 57 61 60 54 50 49 40 28 23 27 41 43 50 49 48 46 50 42 31 30 31 37 42 42 35 37 44 42 44 37 44 37 32 30 51 53 57 58 57 53 45 46 40 35 24 27 37 46 47 51 49 48 49 37 29 32 32 31 29 32 36 42 47 46 39 42 45 42 32 37 48 55 61 62 60 52 46 40 40 31 32 28 37 43 48 56 56 61 50 35 26 31 35 32 43 35 45 43 51 39 35 43 35 40 32 37 51 50 56 58 50 52 52 46 39 26 26 23 36 35 54 58 60 62 56 41 35 37 38 45 39 45 49 49 50 38 37 40 36 32 29 31 42 53 55 55 50 53 49 50 43 30 25 29 35 38 48 52 62 63 50 45 35 36 41 43 44 46 41 36 
30 25 23 21 24 25 25 29 33 50 57 60 58 53 52 48 42 36 32 36 48 51 51 53 51 49 48 34 23 21 21 21 25 27 29 27 32 30 24 17 21 28 28 26 32 51 48 46 48 51 43 46 40 37 29 33 37 46 43 45 51 47 45 32 27 21 24 23 29 27 32 34 33 29 25 19 18 25 28 29 32 45 45 46 45 51 48 43 44 36 29 31 42 42 46 48 44 51 49 36 28 23 18 17 23 31 26 37 28 33 20 19 20 23 24 28 28 44 50 54 56 57 46 45 47 38 25 35 42 43 50 55 55 53 44 41 31 23 19 18 25 25 27 34 29 24 23 17 18 24 24 24 37 44 53 50 46 53 49 49 46 36 27 35 44 47 52 55 51 52 48 39 30 26 17 18 19 23 27 27 31 22 23 22 24 27 34 30 36 46 57 55 49 55 47 50 46 36 31 37 46 52 51 54 48 45 48 31 28 24 22 21 29 25 32 31 
19 20 21 35 39 37 46 43 40 34 43 38 45 37 42 46 36 39 30 45 50 51 44 55 54 45 38 29 33 37 28 30 26 20 23 22 23 22 22 27 32 30 40 45 41 38 43 43 45 43 41 51 42 38 31 38 43 44 45 50 44 52 48 33 31 34 24 23 25 24 23 27 27 28 27 29 28 31 40 35 37 40 42 50 47 51 50 55 40 36 35 40 40 49 47 43 46 55 54 40 36 36 24 28 30 29 21 22 32 27 29 24 29 30 38 37 31 31 41 47 50 51 54 50 46 37 31 41 41 43 46 42 49 49 46 43 43 34 33 34 32 33 30 31 25 32 26 26 31 34 32 33 29 33 43 57 53 55 50 47 45 34 29 41 43 47 52 50 46 44 38 38 32 32 44 33 28 29 24 24 29 26 30 34 35 37 32 24 26 33 39 47 52 42 51 45 41 38 28 45 44 48 51 49 51 41 38 34 34 37 36 36 22 22 19 22 
36 36 32 27 25 19 19 20 19 15 22 24 27 33 38 43 30 26 34 40 42 37 39 38 41 35 21 17 17 20 25 33 29 26 32 30 30 31 26 22 18 26 24 19 16 16 22 24 35 29 41 34 35 23 31 39 41 38 39 42 43 31 21 19 24 20 22 23 20 26 22 30 26 23 29 26 28 23 21 21 21 17 24 23 27 26 36 42 34 27 31 39 43 41 39 41 38 36 22 18 18 17 18 21 22 16 20 21 19 22 25 30 35 24 22 25 18 17 22 24 34 31 36 46 39 29 33 38 41 41 40 33 34 32 22 18 17 21 23 21 21 22 26 19 23 24 23 25 31 22 22 17 20 22 23 27 35 33 49 57 37 29 33 42 38 40 31 29 29 31 24 18 20 24 25 25 33 33 25 28 34 30 26 24 21 22 16 15 22 20 22 27 33 37 44 49 35 27 30 44 40 38 35 36 32 37 24 18 25 26 33 33 37 30 27 37 
13 15 18 18 18 20 15 13 13 11 11 16 23 23 35 38 35 29 29 35 33 39 34 25 24 19 15 14 13 10 17 18 18 19 19 15 15 17 15 17 18 13 14 16 11 10 13 18 22 24 28 35 30 26 28 37 35 35 25 23 23 22 16 16 16 15 17 14 16 17 16 13 18 23 20 20 18 15 13 12 13 14 12 17 24 27 25 36 36 27 29 34 33 31 30 24 23 19 14 16 14 18 15 17 17 17 16 20 12 19 20 20 17 15 15 11 11 11 12 14 17 20 29 30 32 27 27 29 33 36 33 26 18 17 14 15 17 14 14 21 15 12 17 16 15 16 14 16 15 16 13 12 8 10 10 14 16 24 28 40 32 26 27 34 38 27 33 30 25 18 13 13 14 11 12 12 13 14 15 15 16 16 17 18 18 17 17 12 11 11 12 14 17 25 32 42 32 29 25 36 35 31 31 29 26 24 15 13 13 11 10 13 15 19 15 18 
10 10 8 10 9 10 8 8 7 7 7 11 12 15 18 24 29 18 19 19 28 28 25 18 14 12 10 11 9 10 9 9 10 9 10 9 10 10 10 10 10 9 7 6 5 5 6 9 11 18 23 22 28 23 20 23 28 27 22 22 12 10 13 11 8 7 8 7 9 6 8 8 9 10 11 10 9 10 10 7 6 8 8 9 11 17 19 24 32 25 21 21 26 26 20 20 16 11 11 9 8 7 9 11 9 9 10 7 8 10 11 12 9 12 9 10 10 9 8 8 12 16 19 25 24 23 24 21 30 29 23 17 15 9 11 8 7 8 9 11 8 11 9 10 8 8 10 11 9 8 7 8 8 10 10 11 10 14 17 22 24 22 20 19 30 32 20 23 15 13 11 10 7 8 11 11 9 9 11 9 8 8 11 10 10 8 9 7 8 7 9 10 13 17 17 22 33 20 21 24 28 25 28 21 17 12 10 11 8 9 10 10 12 9 9 10 
6 7 7 6 6 6 8 7 6 7 7 6 8 10 15 21 18 14 16 14 15 17 18 14 10 9 6 5 4 6 5 7 5 7 8 9 8 6 6 8 7 8 7 6 7 8 7 6 7 9 13 19 17 16 13 15 16 18 18 16 9 8 5 5 7 7 9 7 7 6 8 6 8 7 7 10 7 6 6 6 6 5 6 5 6 9 11 16 16 15 18 15 15 18 17 12 10 8 7 6 6 7 6 8 6 7 8 9 7 8 9 7 8 7 6 5 4 5 5 6 8 11 16 19 16 15 15 13 17 15 14 11 9 8 7 7 7 7 7 7 6 8 6 6 7 9 8 7 6 7 7 7 5 5 5 5 6 8 13 18 14 16 15 15 18 15 13 11 10 6 7 6 6 6 7 6 7 6 8 6 7 8 8 6 5 6 6 6 6 5 5 7 7 8 15 18 14 14 15 14 19 18 16 14 11 8 6 5 4 5 6 7 6 8 6 7 
5 6 6 5 4 5 4 3 4 3 4 6 5 3 7 7 9 9 10 9 10 8 8 6 6 4 4 4 3 5 6 6 6 4 6 6 5 6 5 4 4 3 3 2 3 2 4 5 5 5 5 6 8 10 9 8 10 8 8 7 6 6 4 3 4 3 5 5 4 5 6 6 6 6 6 5 4 4 4 3 4 4 4 5 5 6 6 7 8 9 9 10 9 9 8 8 4 6 5 4 2 4 3 3 3 4 5 6 6 6 6 5 6 5 5 5 3 4 4 5 5 4 6 8 9 9 9 9 11 10 8 9 6 6 5 3 4 3 4 4 4 5 5 5 6 7 6 5 6 7 4 3 3 4 4 5 6 5 6 8 10 9 11 11 10 8 8 7 6 5 5 3 4 4 3 5 6 6 6 7 7 6 6 6 5 7 6 3 3 3 4 5 5 5 5 7 9 9 11 10 8 9 8 6 5 6 6 4 4 5 5 4 7 6 6 6 
3 3 3 3 3 3 2 2 2 2 1 1 1 1 1 1 2 3 4 2 2 2 1 1 1 1 2 2 2 2 3 3 2 3 3 2 4 4 3 3 3 3 2 3 4 3 2 1 2 1 1 1 2 2 2 3 3 2 1 1 1 2 4 2 3 3 2 2 3 4 4 4 4 4 3 4 3 2 2 2 4 3 3 2 2 2 2 1 1 2 3 3 4 2 1 1 1 1 1 2 4 4 2 3 3 4 3 4 5 4 2 4 2 1 1 2 2 2 2 2 1 2 1 1 1 2 2 3 2 2 2 2 2 2 1 2 3 3 2 3 3 2 3 5 4 5 3 3 2 2 2 2 2 2 1 1 1 1 1 2 2 2 2 2 2 2 2 1 1 1 2 2 1 2 3 2 3 3 4 4 5 4 4 3 3 2 2 2 2 2 1 1 1 1 1 1 2 3 2 1 2 1 1 1 1 1 2 1 2 2 3 2 3 3 4 3 
1 1 1 1 2 1 1 1 1 1 1 1 1 1 1 1 1 1 1 1 1 1 1 1 1 1 1 1 1 1 1 1 1 1 1 1 1 1 1 1 1 1 1 1 1 1 1 1 1 1 1 1 1 1 1 1 1 1 1 1 1 1 1 1 1 1 1 1 1 1 1 1 1 1 1 1 1 1 1 1 1 1 1 1 1 1 1 1 1 1 1 1 1 1 1 1 1 1 1 1 1 1 1 1 1 1 1 1 1 1 1 1 1 1 1 1 1 1 1 1 1 1 1 1 1 1 1 1 1 1 1 1 1 1 1 1 1 1 1 1 1 1 1 1 1 1 1 1 1 1 1 1 1 1 1 1 1 1 1 1 1 1 1 1 1 1 1 1 1 1 1 1 1 1 1 1 1 1 1 1 1 1 1 1 1 1 1 1 1 1 1 1 1 1 1 1 1 1 1 1 1 1 1 1 1 1 1 1 1 1 1 1 1 1 1 1 
1 1 1 1 1 1 1 1 1 1 1 1 1 1 1 1 1 1 1 1 1 1 1 1 1 1 1 1 1 1 1 1 1 1 1 1 1 1 1 1 1 1 1 1 1 1 1 1 1 1 1 1 1 1 1 1 1 1 1 1 1 1 1 1 1 1 1 1 1 1 1 1 1 1 1 1 1 1 1 1 1 1 1 1 1 1 1 1 1 1 1 1 1 1 1 1 1 1 1 1 1 1 1 1 1 1 1 1 1 1 1 1 1 1 1 1 1 1 1 1 1 1 1 1 1 1 1 1 1 1 1 1 1 1 1 1 1 1 1 1 1 1 1 1 1 1 1 1 1 1 1 1 1 1 1 1 1 1 1 1 1 1 1 1 1 1 1 1 1 1 1 1 1 1 1 1 1 1 1 1 1 1 1 1 1 1 1 1 1 1 1 1 1 1 1 1 1 1 1 1 1 1 1 1 1 1 1 1 1 1 1 1 1 1 1 1 
1 1 1 1 1 1 1 1 1 1 1 1 1 1 1 1 1 1 1 1 1 1 1 1 1 1 1 1 1 1 1 1 1 1 1 1 1 1 1 1 1 1 1 1 1 1 1 1 1 1 1 1 1 1 1 1 1 1 1 1 1 1 1 1 1 1 1 1 1 1 1 1 1 1 1 1 1 1 1 1 1 1 1 1 1 1 1 1 1 1 1 1 1 1 1 1 1 1 1 1 1 1 1 1 1 1 1 1 1 1 1 1 1 1 1 1 1 1 1 1 1 1 1 1 1 1 1 1 1 1 1 1 1 1 1 1 1 1 1 1 1 1 1 1 1 1 1 1 1 1 1 1 1 1 1 1 1 1 1 1 1 1 1 1 1 1 1 1 1 1 1 1 1 1 1 1 1 1 1 1 1 1 1 1 1 1 1 1 1 1 1 1 1 1 1 1 1 1 1 1 1 1 1 1 1 1 1 1 1 1 1 1 1 1 1 1 
1 1 1 1 1 1 1 1 1 1 1 1 1 1 1 1 1 1 1 1 1 1 1 1 1 1 1 1 1 1 1 1 1 1 1 1 1 1 1 1 1 1 1 1 1 1 1 1 1 1 1 1 1 1 1 1 1 1 1 1 1 1 1 1 1 1 1 1 1 1 1 1 1 1 1 1 1 1 1 1 1 1 1 1 1 1 1 1 1 1 1 1 1 1 1 1 1 1 1 1 1 1 1 1 1 1 1 1 1 1 1 1 1 1 1 1 1 1 1 1 1 1 1 1 1 1 1 1 1 1 1 1 1 1 1 1 1 1 1 1 1 1 1 1 1 1 1 1 1 1 1 1 1 1 1 1 1 1 1 1 1 1 1 1 1 1 1 1 1 1 1 1 1 1 1 1 1 1 1 1 1 1 1 1 1 1 1 1 1 1 1 1 1 1 1 1 1 1 1 1 1 1 1 1 1 1 1 1 1 1 1 1 1 1 1 1 
0 0 1 1 1 1 1 1 1 1 1 1 1 1 1 1 1 1 1 1 1 1 1 1 1 1 1 1 1 1 1 1 1 0 0 1 1 1 0 0 0 1 1 1 0 1 1 1 0 1 1 1 1 1 1 1 1 0 1 1 1 1 1 0 1 1 0 1 1 1 1 1 0 1 1 1 1 0 0 1 1 1 1 1 1 1 0 1 1 1 0 1 1 1 1 1 1 1 1 1 1 0 1 1 1 1 0 1 1 1 0 0 1 1 0 1 1 0 1 1 1 1 1 1 1 1 1 1 1 1 1 1 1 1 0 1 1 1 1 1 0 1 1 1 0 1 1 1 1 1 1 1 1 1 1 1 1 1 1 1 1 1 1 1 0 1 1 1 1 1 1 1 1 1 1 1 1 1 1 0 0 1 1 1 1 0 0 1 0 1 1 1 1 1 1 1 1 1 1 1 1 1 1 1 1 1 1 1 1 1 1 0 1 0 1 1 
0 0 0 1 0 0 0 1 1 1 0 0 1 1 1 1 1 1 1 1 0 1 0 1 1 0 1 0 1 1 1 0 1 0 0 0 0 1 1 0 0 0 1 0 0 0 0 0 0 0 0 1 0 1 1 0 1 1 0 1 0 1 0 0 1 0 1 1 0 0 0 0 1 0 0 0 0 0 1 1 1 1 1 1 0 0 1 1 0 1 0 1 0 0 0 1 1 1 1 1 1 1 0 1 0 0 0 0 0 0 0 0 0 0 0 0 1 1 1 1 1 0 0 0 1 0 1 1 1 0 0 0 1 1 0 0 0 0 1 1 1 1 0 0 0 1 1 0 0 0 0 1 1 1 1 0 1 0 0 1 1 1 1 0 0 1 0 0 0 0 1 0 1 1 0 0 0 0 0 0 0 0 1 1 0 0 0 0 0 1 0 0 1 0 0 1 0 0 1 0 0 1 0 1 0 1 1 1 0 1 0 1 0 0 1 0 
0 0 1 0 1 0 0 0 1 0 1 0 0 0 0 0 0 0 0 0 0 1 0 1 0 0 1 0 1 0 0 1 1 0 0 1 1 0 1 0 0 0 0 1 0 0 0 1 1 1 1 0 0 0 0 0 1 0 1 0 0 0 0 0 0 0 1 1 0 0 0 0 0 0 0 1 0 0 0 0 1 1 0 0 1 0 0 1 0 1 1 0 0 0 1 1 0 0 1 0 0 0 0 0 0 0 1 0 0 0 0 0 0 0 0 0 1 0 1 0 0 0 1 0 0 0 1 1 0 1 1 0 1 1 0 1 1 0 1 0 0 0 0 0 0 1 0 0 1 1 0 0 0 0 1 0 0 0 0 1 0 1 1 0 1 0 1 1 0 0 0 1 1 0 1 0 1 0 1 0 0 0 0 0 0 1 0 0 0 0 0 1 1 0 1 0 1 1 0 0 0 0 0 0 1 0 0 0 1 0 1 0 1 1 1 0 
0 0 1 0 1 1 1 0 0 1 1 1 0 0 0 0 0 0 1 0 0 0 1 1 0 1 0 0 1 1 1 0 1 1 0 0 0 0 1 0 1 0 1 1 1 1 1 0 0 0 1 1 1 0 0 0 0 0 0 0 0 1 0 1 1 1 1 1 1 0 1 1 1 0 1 0 1 1 1 0 0 0 1 0 0 0 1 0 0 0 1 1 1 0 0 0 1 1 0 0 1 0 0 0 0 0 0 1 0 1 0 0 0 1 0 0 0 0 1 0 1 0 0 1 0 0 0 0 1 0 0 0 0 1 0 1 1 0 0 1 1 1 1 1 0 1 0 0 0 0 1 1 0 1 1 1 0 0 1 0 0 0 1 1 1 0 1 1 1 1 0 1 1 1 1 0 0 0 1 0 0 0 0 1 1 0 1 0 1 1 0 0 0 0 0 0 0 0 0 0 0 0 0 0 0 0 0 1 1 1 0 0 1 1 1 1 
0 0 0 0 1 0 0 1 0 0 1 0 0 0 1 0 0 0 0 0 1 0 0 0 0 0 0 0 1 0 0 0 0 0 0 0 0 0 1 0 0 1 1 0 0 0 0 0 0 1 0 0 1 0 0 0 1 0 1 1 0 1 1 0 0 0 0 0 0 0 0 0 0 0 0 1 0 1 0 0 0 1 0 1 0 0 1 0 0 0 0 1 1 0 0 1 0 0 0 0 0 1 0 0 1 0 0 1 0 0 1 0 1 1 0 0 0 1 1 0 0 1 1 1 1 1 1 0 0 0 1 0 1 0 1 0 0 1 0 0 1 0 0 1 0 1 0 0 1 0 0 0 1 0 1 0 0 1 0 0 1 1 1 1 1 1 0 0 0 1 0 1 1 1 0 0 0 1 0 0 0 0 1 0 1 1 0 1 1 0 1 0 0 0 0 1 0 1 0 0 1 1 0 0 1 0 0 1 0 1 1 1 0 1 0 0 
