P2
180 36
255
51 70 78 65 100 114 125 242 206 122 122 124 114 109 107 121 136 253 253 253 253 253 253 253 253 253 253 253 253 253 253 253 253 253 253 253 253 253 253 253 253 253 253 253 253 253 253 253 253 253 253 253 253 253 253 253 253 253 253 253 253 253 253 253 253 253 253 253 253 253 253 253 253 253 253 253 253 253 253 253 253 235 253 239 253 253 253 253 253 253 253 253 118 114 108 99 85 92 79 93 92 92 82 71 85 107 244 253 253 253 253 253 253 253 253 253 253 253 253 253 231 231 194 166 177 237 237 253 253 253 253 253 253 253 253 253 253 226 190 173 168 146 128 127 139 138 124 125 154 130 139 164 151 138 122 125 115 121 115 108 115 112 107 104 99 95 73 57 48 45 35 32 25 12 12 10 6 2 2 1 
41 45 86 92 114 118 124 253 161 116 115 111 121 116 109 112 124 127 141 133 107 109 111 161 166 253 253 253 253 253 253 253 253 253 253 253 253 253 253 253 253 253 253 253 253 253 253 253 253 253 253 253 253 253 253 253 253 253 253 253 253 253 253 253 253 253 253 253 253 253 253 253 253 253 253 253 253 253 253 253 253 253 253 253 253 253 253 253 253 253 253 253 202 108 77 54 56 55 55 60 78 97 85 76 80 85 118 108 118 138 131 161 157 151 121 124 116 112 119 112 115 131 147 170 170 161 206 202 198 253 220 253 253 253 253 224 170 161 173 141 130 128 133 124 115 119 116 128 149 134 144 173 154 154 168 156 134 125 130 112 111 111 114 114 101 111 95 69 55 55 41 43 40 24 12 9 9 4 2 2 
23 38 67 91 64 88 93 100 97 111 114 121 122 104 105 99 105 104 114 109 122 105 115 119 121 147 253 253 253 253 253 253 253 253 253 253 253 253 253 253 253 253 253 253 253 253 253 253 253 253 253 253 253 253 253 253 253 253 253 253 253 253 253 253 253 253 253 253 253 253 253 253 253 253 253 253 253 253 253 253 253 253 253 253 253 253 253 253 253 237 220 233 142 118 93 61 53 50 45 44 47 56 54 63 88 92 82 72 76 74 97 104 130 104 100 107 96 111 116 109 116 119 124 112 107 128 151 130 164 181 216 253 242 206 218 202 157 134 138 134 131 116 125 141 130 122 121 116 130 141 151 147 156 173 181 194 192 157 147 121 124 115 114 115 111 109 108 80 63 52 47 49 51 27 13 10 9 6 2 1 
2 9 42 45 51 65 46 57 46 51 48 55 81 87 103 101 95 96 87 84 79 100 108 109 93 86 95 131 173 164 210 253 253 253 253 253 253 253 253 253 253 253 253 253 253 253 253 253 253 253 253 253 253 253 253 253 253 253 253 253 253 253 253 253 253 253 253 253 253 253 253 253 253 253 253 253 253 253 253 253 253 253 253 253 253 237 206 210 206 144 122 108 97 105 68 60 69 57 45 41 38 56 81 91 81 88 85 92 105 103 99 128 116 111 112 112 119 109 127 128 122 114 119 127 139 163 136 152 163 146 244 242 233 229 204 204 154 131 131 173 154 146 125 125 127 125 125 128 146 131 138 152 161 196 188 190 163 171 181 154 144 133 136 115 116 112 115 107 87 67 56 48 41 15 13 12 10 5 2 2 
6 13 13 17 48 85 61 48 43 37 52 80 121 57 48 46 53 67 54 48 52 77 76 119 138 177 253 253 253 253 253 253 253 253 253 253 253 253 253 253 253 253 253 253 253 253 253 253 253 253 253 253 253 253 253 253 253 253 253 253 253 253 253 253 253 253 253 253 253 253 253 253 253 253 253 253 253 253 253 253 253 253 253 253 253 253 231 253 253 253 253 218 152 99 72 29 32 25 38 66 77 92 81 85 77 81 84 88 100 111 115 104 119 108 115 115 115 128 134 177 159 127 124 116 127 130 130 173 186 208 204 216 242 253 253 235 156 138 156 253 216 170 144 136 149 133 138 142 127 151 204 202 186 183 196 190 173 168 163 142 166 151 156 170 142 127 112 109 99 76 61 51 35 13 10 9 3 2 1 1 
8 11 10 12 13 19 41 47 50 51 42 53 51 51 45 43 43 56 44 51 59 63 53 85 115 136 253 253 253 253 253 253 253 253 253 253 253 253 253 253 253 253 253 253 253 253 253 253 253 253 253 253 253 253 253 253 253 253 253 253 253 253 253 253 253 253 253 253 253 253 253 253 253 253 253 253 253 253 253 253 253 253 253 253 253 163 141 206 253 216 212 196 159 127 112 111 95 91 99 107 87 91 92 82 88 90 84 88 84 111 121 125 130 139 136 142 181 198 226 224 204 119 141 127 127 130 138 166 210 183 253 253 242 253 253 242 190 171 151 138 138 138 151 177 149 168 170 200 204 192 173 159 184 171 175 175 179 177 166 166 170 181 184 235 212 200 144 124 109 91 59 41 15 13 7 3 1 2 2 2 
9 10 10 5 4 8 24 51 59 76 88 95 101 79 65 60 62 67 79 93 108 108 154 214 253 253 253 253 253 253 253 253 253 253 253 253 253 253 253 253 253 253 253 253 253 253 253 253 253 253 253 253 253 253 253 253 253 253 253 253 253 253 253 253 253 253 253 253 253 253 253 253 253 253 253 253 253 253 253 253 253 253 253 253 253 253 235 184 156 157 149 127 118 125 118 114 103 109 105 104 118 107 107 103 97 107 109 116 115 128 138 121 127 131 131 239 253 253 253 224 177 133 131 138 147 157 212 216 253 253 253 253 253 253 253 224 194 177 208 212 220 198 218 226 235 231 242 235 237 210 202 175 154 157 157 156 166 147 154 147 177 198 210 216 220 204 204 196 159 107 58 45 22 9 3 2 2 2 1 1 
10 6 3 3 5 17 37 87 96 87 81 79 73 55 149 192 216 196 168 164 133 144 166 177 226 253 253 253 253 253 253 253 253 253 253 253 253 253 253 253 253 253 253 253 253 253 253 253 253 253 253 253 253 253 253 253 253 253 253 253 253 253 253 253 253 253 253 253 253 253 253 253 253 253 253 253 253 253 253 253 253 253 253 253 253 253 253 253 181 138 125 114 116 118 124 115 118 122 124 121 122 128 127 131 128 124 119 130 144 133 133 127 131 136 212 253 253 253 253 253 253 214 253 253 253 253 244 253 253 253 253 253 253 253 218 242 253 253 253 253 253 253 253 253 253 253 253 253 253 253 235 239 242 253 253 253 231 170 171 206 216 204 222 233 208 200 216 229 212 168 108 66 41 10 3 2 3 3 1 2 
4 3 4 14 38 70 100 82 50 51 49 48 57 131 214 222 210 131 92 85 81 210 253 253 253 253 253 253 253 253 253 253 253 253 253 253 253 253 253 253 253 253 253 253 253 253 253 253 253 253 253 253 253 253 253 253 253 253 253 253 253 253 253 253 253 253 253 253 253 253 253 253 253 253 253 253 253 253 253 253 253 253 253 253 253 253 253 253 237 147 149 124 122 127 122 124 118 127 121 115 130 118 127 118 124 127 121 116 127 114 116 121 134 200 253 253 253 253 253 253 253 253 253 253 253 253 253 253 253 253 253 253 253 253 253 253 253 253 253 253 253 253 253 253 253 253 253 253 244 253 224 244 253 253 253 253 253 237 253 244 231 210 194 214 171 186 210 184 206 235 210 130 82 20 10 4 3 1 2 2 
2 2 23 49 78 93 81 59 60 60 56 73 118 196 196 200 212 163 183 159 159 134 151 210 253 253 253 253 253 253 253 253 253 253 253 253 253 253 253 253 253 253 253 253 253 253 253 253 253 253 253 253 253 253 253 253 253 253 253 253 253 253 253 253 253 253 253 253 253 253 253 253 253 253 253 253 253 253 253 253 253 253 253 253 253 253 253 253 220 181 198 177 194 157 149 118 131 119 115 112 119 111 133 119 127 119 118 134 115 130 130 156 156 149 138 214 253 253 253 253 253 253 253 239 253 253 253 253 244 253 253 242 226 253 244 239 235 253 253 253 253 253 253 253 253 253 253 253 253 253 235 208 224 253 253 253 253 253 235 235 242 206 202 200 157 164 163 157 159 186 163 173 141 40 15 5 2 2 1 1 
3 8 48 88 122 80 91 76 69 71 54 59 77 118 196 168 146 124 127 114 108 91 69 78 68 81 85 109 101 146 237 244 253 253 253 253 253 253 253 253 253 253 253 253 253 253 253 253 253 253 253 253 253 253 253 253 253 253 253 253 253 253 253 253 253 253 253 253 253 253 253 253 253 253 253 253 253 253 253 253 253 253 253 253 253 231 163 154 164 183 239 200 181 156 154 149 149 144 142 136 138 134 124 139 138 127 125 133 142 136 134 122 136 154 128 222 222 253 224 235 253 253 253 246 253 253 253 231 253 231 253 237 253 253 253 253 253 253 253 242 242 242 210 216 208 253 253 253 253 253 253 253 253 244 253 253 239 253 222 206 237 200 216 168 138 156 163 128 124 125 116 124 134 52 22 10 2 1 2 1 
3 14 48 104 151 107 101 95 76 87 69 70 79 109 115 122 122 130 134 128 133 119 115 108 122 136 144 136 157 179 192 202 204 253 253 253 253 253 231 253 253 246 253 253 253 253 253 253 253 253 253 253 253 253 253 253 253 253 253 253 253 200 164 156 161 220 233 226 253 253 253 212 253 253 253 253 253 253 253 253 253 253 253 253 177 157 159 171 231 244 198 175 157 152 168 147 142 139 151 136 146 147 141 147 142 141 139 144 144 128 133 146 144 139 141 156 168 168 175 161 226 253 218 253 253 253 253 253 253 253 253 253 253 253 253 253 253 253 253 242 233 204 190 186 204 206 196 237 239 253 253 253 253 253 253 253 253 231 220 192 198 181 173 156 133 116 168 156 138 118 141 116 115 54 27 12 7 2 1 2 
2 12 34 66 127 124 111 118 127 118 121 142 179 253 233 253 233 208 194 177 175 164 130 134 181 186 147 141 134 146 168 146 152 157 186 200 208 156 170 198 175 164 175 188 190 253 253 253 253 253 233 186 188 206 233 242 231 233 194 156 183 168 188 190 210 220 184 161 163 186 186 168 152 157 157 179 168 159 152 146 164 171 170 177 141 183 214 253 253 190 164 161 157 152 144 144 161 154 151 144 149 144 147 152 157 146 151 157 154 149 157 147 147 144 146 147 179 190 192 161 175 157 222 226 253 253 253 253 253 253 253 253 253 253 253 253 253 253 253 253 253 231 253 186 231 214 220 216 231 253 253 253 253 253 253 253 253 237 231 190 200 194 222 220 184 188 216 183 179 149 124 112 114 64 40 13 8 1 2 2 
2 12 32 55 125 154 220 210 253 253 253 220 200 246 253 253 253 253 253 253 253 253 253 253 253 253 253 233 208 214 224 202 198 152 214 231 253 239 253 186 192 168 173 157 157 159 166 157 161 168 181 218 231 253 253 235 170 196 156 156 166 146 149 164 156 163 142 147 144 154 190 184 156 154 181 198 194 200 196 171 161 194 168 152 149 177 204 190 149 156 151 154 156 156 151 159 151 149 156 163 146 149 157 146 149 147 151 157 156 147 157 147 159 144 149 163 198 214 204 183 190 198 210 204 253 253 253 253 253 253 253 253 253 253 253 253 253 253 253 253 253 253 253 253 253 253 253 253 229 253 253 253 253 253 253 253 253 253 253 253 253 220 224 237 235 226 196 202 138 119 116 108 119 50 19 13 7 2 2 1 
1 5 31 45 136 222 253 253 253 253 253 253 253 253 253 253 253 253 253 253 253 253 253 253 253 253 253 253 253 253 253 253 253 253 192 173 220 204 183 200 194 204 235 190 184 177 181 161 183 194 242 229 192 239 156 166 154 154 152 156 146 149 157 151 152 144 147 156 144 154 146 147 159 163 159 157 154 157 154 156 173 170 159 149 163 171 173 141 157 147 154 157 157 157 154 157 152 156 157 170 157 154 147 161 142 156 149 146 157 156 147 154 157 152 156 146 163 154 152 168 173 204 179 194 222 239 253 214 208 253 253 253 253 253 253 253 253 253 253 253 253 253 253 253 253 253 253 244 235 253 253 253 253 253 253 253 253 253 253 216 184 210 173 212 166 210 212 133 119 127 112 121 114 30 13 10 4 2 2 1 
2 2 28 27 80 192 246 253 253 253 253 253 253 253 253 253 253 253 253 253 253 253 253 253 253 253 253 253 253 253 253 253 253 253 253 214 194 163 161 154 163 171 168 157 166 168 163 168 163 170 222 186 188 233 177 196 163 156 157 152 144 157 151 154 152 149 147 157 159 166 159 152 170 151 154 157 151 168 166 184 163 163 164 157 173 184 170 166 175 154 184 166 152 163 159 154 156 163 156 157 149 163 152 147 152 151 156 149 154 161 157 152 152 159 149 159 159 142 186 210 216 177 216 196 231 253 244 253 253 229 253 253 253 253 253 253 253 253 253 253 253 253 253 253 253 253 253 253 253 253 253 231 253 253 253 253 253 253 233 222 200 200 224 224 200 149 171 119 111 107 115 109 76 17 11 6 2 2 1 2 
1 2 19 35 45 124 222 253 253 253 253 253 253 253 253 253 253 253 253 181 231 220 253 253 253 253 253 253 253 253 253 253 253 253 175 156 161 171 161 159 161 159 166 157 166 166 171 161 170 196 216 177 166 183 166 164 166 170 171 154 163 163 149 163 163 166 166 159 152 157 159 152 166 171 159 173 156 161 159 157 166 164 149 163 163 164 157 164 166 157 156 159 154 166 152 161 161 154 163 157 154 164 159 154 154 152 164 159 161 161 159 166 159 164 157 154 164 177 229 253 226 190 181 175 196 253 253 244 237 214 253 253 253 253 253 253 253 253 253 253 253 253 253 253 253 253 253 231 253 242 253 253 253 253 253 253 253 253 231 218 192 212 196 192 166 112 116 87 82 107 105 82 42 13 8 2 1 2 1 1 
2 2 12 26 35 65 164 253 253 253 253 253 253 253 202 235 253 253 253 224 181 206 224 253 231 231 229 253 253 253 253 239 222 239 231 175 175 159 157 163 164 170 159 164 164 168 171 164 161 164 171 166 164 170 173 170 177 166 159 164 170 181 163 166 170 168 168 173 168 166 170 163 173 157 171 161 163 171 156 168 166 166 163 190 242 202 163 159 161 156 157 157 154 163 154 161 154 157 170 161 166 163 157 168 154 154 154 159 168 151 156 156 163 173 202 220 253 253 239 253 253 253 237 233 229 214 208 218 192 253 253 253 253 253 253 253 253 253 253 253 253 253 253 253 253 253 242 253 231 231 253 253 242 244 253 253 253 218 235 208 183 192 198 144 114 93 76 72 87 101 65 45 21 6 1 2 2 1 2 2 
1 1 7 14 34 48 104 253 253 220 253 253 253 253 253 194 202 194 253 253 253 179 242 253 253 253 253 253 246 210 231 210 198 224 242 253 242 214 173 183 168 164 166 173 173 173 179 170 166 161 168 168 170 175 168 173 173 170 170 164 164 166 168 173 166 171 171 164 173 170 166 168 164 175 163 161 164 177 173 166 175 168 170 175 183 186 161 164 164 171 194 164 163 170 166 157 157 170 163 159 151 164 164 163 164 168 164 175 168 164 161 159 194 190 224 253 212 183 253 253 253 231 226 204 210 204 204 222 253 253 253 253 253 253 253 253 253 253 253 253 253 253 253 253 253 253 253 253 242 233 253 253 212 208 210 229 186 202 154 149 163 164 134 118 86 81 91 100 78 56 29 17 10 1 2 2 2 1 2 2 
2 2 3 12 19 32 52 206 253 253 253 253 253 253 253 253 253 214 253 253 253 253 253 253 253 253 253 253 253 253 253 253 253 253 253 253 253 253 244 208 168 161 181 186 220 188 170 171 168 177 171 170 173 168 168 194 175 170 179 168 181 173 171 168 175 164 179 184 170 164 186 175 177 170 192 168 173 175 168 190 196 171 186 202 194 186 190 194 237 218 226 253 220 210 218 166 163 159 161 168 159 168 168 164 171 166 164 168 163 163 163 164 164 198 204 181 179 175 235 233 253 253 253 253 253 253 253 253 253 253 253 253 253 253 253 253 253 253 253 253 253 253 216 222 220 198 214 194 212 206 200 226 186 157 151 177 170 146 118 142 118 114 105 87 84 79 78 76 25 16 12 6 2 2 1 2 2 2 2 1 
2 2 2 2 6 11 23 60 134 253 253 253 253 253 253 253 253 253 253 253 253 253 253 253 253 253 253 253 253 253 253 253 253 253 253 253 253 253 253 253 224 200 237 253 231 200 220 216 216 233 179 171 190 190 194 206 190 214 177 173 171 175 173 177 164 170 173 175 183 204 216 206 226 210 184 179 188 198 218 214 186 184 204 194 194 192 190 177 244 253 253 253 253 239 253 253 204 196 177 177 166 177 173 173 164 181 168 166 163 171 161 183 186 186 202 179 202 181 216 253 253 253 253 253 253 253 235 216 242 253 220 242 244 239 237 253 253 220 198 208 194 183 216 186 239 204 202 204 216 214 216 164 164 128 138 154 124 128 124 111 97 96 88 70 65 80 48 21 11 7 2 2 2 1 2 1 1 2 2 2 
1 2 1 2 1 2 6 23 27 37 95 202 253 253 253 253 253 253 253 253 253 253 253 253 253 253 253 253 253 253 253 253 253 253 253 253 253 253 253 253 253 253 253 253 253 253 253 253 233 210 216 200 171 168 170 170 179 173 175 186 184 179 196 204 214 198 196 194 198 214 231 200 226 229 253 244 253 253 253 253 253 235 237 253 220 253 253 192 202 239 218 214 186 253 253 253 253 253 224 224 170 163 170 175 168 168 170 168 175 171 164 202 198 198 175 186 166 218 198 239 253 237 239 253 204 253 246 220 208 192 239 231 216 233 226 224 177 166 184 154 164 163 173 198 231 235 198 184 170 168 136 141 127 127 131 139 128 133 116 86 104 95 78 78 55 25 13 13 3 2 1 2 1 1 1 1 1 2 2 1 
1 1 1 2 2 2 1 3 8 20 30 31 96 216 253 253 253 253 253 253 253 253 253 253 253 253 253 253 253 253 253 253 253 253 253 253 253 253 253 253 253 253 253 253 253 253 253 253 253 253 253 237 198 194 186 166 170 181 173 179 210 198 200 216 220 226 244 253 231 220 184 188 216 253 253 253 253 253 224 253 253 253 253 253 253 253 220 210 210 229 253 253 253 253 253 253 253 253 253 253 253 175 170 188 198 206 188 202 226 204 216 186 196 218 212 198 173 177 181 253 253 253 231 224 220 216 216 226 184 190 196 179 229 198 190 200 192 175 175 157 171 192 183 179 163 157 147 151 149 131 131 122 134 138 115 124 130 125 100 105 88 84 81 31 16 11 12 4 1 2 1 2 2 1 1 2 2 1 2 1 
2 1 2 2 2 1 2 2 1 1 3 14 27 35 51 101 206 253 253 253 253 253 253 253 253 253 253 253 253 253 253 253 253 253 253 253 253 253 253 253 253 253 253 253 253 253 253 253 253 253 253 253 224 175 204 210 183 186 192 212 194 190 186 177 204 188 196 206 229 190 171 186 253 253 253 253 253 253 253 253 253 253 253 253 253 253 253 220 206 190 206 214 212 235 222 202 229 216 222 218 231 253 239 239 253 239 253 253 208 231 253 253 220 166 171 164 177 168 164 200 242 204 231 231 229 239 194 168 166 163 170 164 156 159 175 166 157 186 204 206 188 166 156 173 146 136 141 119 141 122 152 154 124 130 131 125 127 97 101 97 76 37 21 12 9 4 1 2 2 2 2 1 1 2 2 2 2 2 2 2 
1 1 1 1 1 1 2 2 1 2 1 1 3 10 18 24 28 70 146 220 253 253 253 253 253 253 253 253 253 253 253 253 253 253 253 253 253 253 253 253 253 253 253 253 253 253 253 253 244 229 253 253 253 226 244 222 246 233 253 246 183 206 198 204 186 194 168 173 183 177 179 173 183 224 253 253 253 253 253 253 253 253 253 253 253 253 206 204 214 253 253 192 184 177 194 196 192 210 198 212 242 208 224 235 237 253 235 253 235 212 222 224 179 188 188 166 179 186 190 220 226 204 214 242 253 239 198 159 184 157 156 164 147 152 161 183 161 175 179 159 156 154 134 159 139 127 124 128 136 128 138 139 149 151 127 101 93 99 59 27 17 13 11 3 1 1 1 1 1 2 2 2 1 2 2 1 2 1 2 2 
1 1 2 1 2 2 2 3 1 2 2 1 2 2 2 2 6 28 33 33 41 76 206 208 253 253 253 253 253 253 253 253 253 253 253 253 208 237 253 253 253 253 253 253 253 253 253 253 253 253 253 253 253 253 253 246 233 222 253 244 220 186 177 171 184 171 179 168 194 170 175 190 218 237 192 212 196 192 188 206 194 204 233 222 200 212 226 177 177 171 183 194 184 188 194 218 229 253 253 224 244 222 210 200 210 244 218 206 198 190 214 192 242 218 233 253 202 253 229 220 253 253 204 222 212 226 222 190 216 188 190 194 194 157 190 170 163 173 168 157 142 138 144 147 161 154 161 141 170 166 156 157 134 146 96 101 68 32 17 13 9 3 2 1 1 2 2 2 1 1 1 2 2 2 1 1 1 1 2 2 
2 1 1 1 2 2 2 1 2 1 2 1 1 1 2 1 2 2 2 8 18 30 35 43 57 92 173 210 253 253 253 253 253 253 253 253 253 253 253 253 253 253 242 253 253 253 253 253 253 253 253 253 253 253 242 237 253 253 253 253 253 253 253 198 190 164 202 192 204 196 168 173 198 183 181 179 179 181 170 188 179 186 173 188 183 175 177 177 175 164 175 220 231 233 235 210 220 196 184 198 204 161 173 181 183 190 192 220 200 242 233 231 224 216 253 214 206 224 177 212 212 242 222 196 198 218 186 170 186 161 157 183 196 164 142 146 166 166 159 138 141 154 166 151 166 188 173 136 134 157 161 152 115 90 41 27 15 16 7 2 2 1 2 1 1 2 2 1 1 1 2 2 1 3 1 1 1 1 1 2 
1 1 2 2 1 1 2 2 1 2 2 2 1 2 1 1 2 2 2 1 2 1 7 16 25 32 36 41 65 107 175 246 253 253 253 253 253 253 253 253 253 253 253 253 253 253 253 253 253 253 253 253 253 253 253 253 253 253 253 244 253 253 253 253 253 253 253 253 253 253 253 253 231 179 166 235 233 253 253 226 224 177 183 202 188 184 184 168 200 200 175 177 188 206 210 253 206 239 212 220 222 202 229 253 253 246 253 229 253 226 233 235 239 253 253 226 214 206 224 222 216 188 190 196 200 164 161 147 139 141 159 179 166 166 171 161 161 157 149 156 142 188 156 161 127 138 124 119 133 127 131 92 58 24 15 13 8 2 1 1 2 2 1 2 2 1 1 1 1 1 2 1 2 1 2 1 2 1 2 2 
2 2 2 2 2 1 2 2 1 1 2 2 2 2 1 2 2 1 1 2 2 1 1 2 1 2 2 17 29 40 47 41 59 90 159 253 253 253 253 253 253 253 253 253 253 253 253 253 253 253 253 253 253 253 253 253 253 253 253 253 253 253 253 253 253 253 253 253 253 253 253 253 253 253 253 253 253 253 253 253 253 253 253 253 233 253 253 253 242 237 231 242 253 253 253 242 253 253 231 218 226 224 220 253 229 224 244 212 233 226 210 253 202 222 196 210 224 224 246 212 226 226 208 192 188 192 190 196 220 229 202 183 186 200 202 198 186 183 168 173 183 210 149 131 130 131 121 139 114 73 41 23 17 11 4 2 1 1 2 1 2 1 1 2 1 2 2 2 2 1 1 2 1 1 2 1 2 1 2 2 
2 2 1 2 1 1 2 1 1 1 1 2 1 2 1 2 1 1 1 1 1 2 1 2 2 2 1 1 1 1 2 7 25 32 33 36 43 71 116 184 253 253 253 253 253 253 253 253 253 253 253 253 253 253 253 253 253 253 253 253 253 253 253 253 253 253 253 253 253 253 253 253 237 253 253 253 253 253 253 253 253 253 253 253 253 253 253 253 253 253 253 246 253 253 231 253 253 253 253 253 253 253 253 253 253 231 253 253 253 253 253 253 253 237 253 253 237 237 218 175 190 202 218 198 190 237 212 190 208 179 202 177 173 168 159 157 154 125 136 139 141 146 136 131 118 109 91 66 24 15 15 11 8 1 2 1 2 2 1 2 2 2 2 1 2 1 2 1 2 2 2 1 2 1 1 2 2 1 2 2 
2 2 2 2 1 2 1 2 2 2 2 1 2 2 1 1 1 1 2 2 2 1 2 1 2 2 1 1 1 2 1 1 1 1 2 3 7 20 28 29 36 42 64 82 112 142 204 253 253 253 253 253 253 253 253 253 253 253 253 253 253 253 253 253 253 253 253 253 253 253 253 253 253 253 253 253 253 242 253 253 244 253 253 253 253 253 253 253 253 253 253 253 253 253 253 253 253 253 253 253 253 253 253 253 253 244 253 253 253 253 253 253 253 253 253 253 246 253 253 253 253 253 253 253 229 198 222 152 141 131 124 146 151 154 163 166 161 179 161 157 131 118 96 67 51 36 27 17 7 3 2 1 1 1 1 2 1 1 1 2 1 2 2 2 2 2 2 2 2 2 1 2 2 2 2 1 2 2 2 1 
1 2 1 2 1 2 2 1 1 1 2 2 2 2 2 1 1 2 2 2 1 1 1 1 1 1 1 2 1 1 2 2 1 2 1 1 2 2 2 1 2 3 13 18 22 23 30 37 51 59 60 67 101 134 175 218 253 253 253 253 253 253 253 253 253 253 253 253 253 253 253 253 253 253 253 253 253 253 253 253 253 253 253 253 253 242 253 253 253 253 253 253 253 253 253 253 253 253 253 253 253 253 253 253 253 253 253 253 253 253 253 253 253 253 253 253 253 253 253 253 244 244 177 154 168 183 210 224 192 181 171 159 166 166 144 125 100 78 63 51 43 39 30 18 8 3 2 2 2 1 2 2 1 1 1 2 1 1 2 1 1 2 1 1 2 2 1 1 1 2 1 2 1 2 1 2 2 2 2 1 
1 2 1 2 2 2 2 2 1 2 2 2 1 1 1 2 2 1 1 1 1 1 2 2 1 1 2 1 1 2 2 2 2 3 2 2 1 2 2 2 2 2 1 2 2 3 2 4 3 6 10 13 17 21 22 25 30 39 46 56 54 59 71 77 111 136 157 231 253 253 253 253 253 253 253 253 253 253 253 253 253 253 253 253 253 253 239 235 237 253 242 253 253 253 253 226 253 253 253 244 253 253 242 246 244 226 235 242 253 253 239 235 220 216 235 222 210 198 206 214 186 200 206 192 181 184 184 200 161 124 119 87 68 55 48 40 33 27 14 8 4 3 2 2 2 1 1 1 2 2 2 1 2 2 1 1 1 1 2 2 1 1 2 2 1 1 1 2 2 1 1 2 2 1 1 2 1 1 1 1 
1 2 2 2 2 2 2 2 2 1 1 2 2 2 1 2 2 2 1 2 2 2 1 1 2 1 1 1 1 2 2 1 1 1 2 2 1 1 2 1 2 1 3 2 2 3 4 3 3 3 3 4 3 2 3 2 2 2 3 3 6 11 25 25 25 31 37 41 38 37 37 46 56 54 59 69 85 97 130 144 156 168 200 206 212 208 218 210 210 224 231 239 233 253 253 242 253 253 244 237 235 253 253 253 253 253 253 253 253 253 222 218 206 175 179 157 164 154 142 119 119 90 77 73 64 62 55 49 40 36 32 24 20 9 5 2 2 2 2 2 1 2 2 2 1 1 1 1 1 1 1 1 1 2 1 1 1 2 1 1 1 2 1 2 1 2 1 2 2 2 1 2 2 2 2 2 2 2 2 2 
1 2 2 2 1 2 2 1 2 2 2 1 1 1 1 2 1 2 1 1 2 1 1 2 1 2 1 1 2 1 2 1 1 2 2 1 1 1 2 1 1 1 1 2 2 2 2 2 3 5 5 5 6 7 10 13 16 16 35 57 56 41 24 19 19 19 19 18 18 18 13 5 3 5 10 9 11 14 17 17 17 19 20 20 26 25 24 30 30 26 27 31 31 32 41 49 40 41 51 56 61 55 66 62 62 72 72 64 51 53 49 46 43 41 35 32 30 30 25 23 25 19 17 11 8 6 4 3 2 2 2 2 2 2 2 1 1 2 2 2 2 2 1 1 1 2 2 2 1 1 2 2 1 2 1 1 1 2 2 1 1 2 1 2 2 2 1 2 1 2 1 2 1 2 2 2 1 1 2 2 
1 1 1 1 1 2 1 1 2 2 1 2 2 2 2 2 1 2 1 2 1 2 1 2 2 1 2 2 1 2 1 1 2 2 1 2 2 1 2 1 2 1 1 1 1 2 1 2 2 3 3 7 13 14 14 18 17 18 23 43 70 90 96 74 60 23 18 22 23 30 42 78 107 130 142 147 78 47 22 11 9 3 2 2 2 2 1 2 3 9 15 32 65 69 70 71 59 66 67 67 63 49 17 6 3 3 2 3 2 2 2 2 2 2 1 1 2 2 2 2 2 2 2 2 2 2 2 2 1 2 1 1 2 1 1 2 2 2 2 2 1 1 2 1 1 1 2 1 2 2 2 2 1 1 1 2 1 2 2 1 2 1 1 2 1 2 2 2 2 1 2 1 1 2 1 1 2 1 1 2 
