P2
180 36
255
0 0 1 0 0 1 1 1 1 1 1 1 1 1 1 1 1 1 1 1 1 10 11 34 3 6 47 23 27 9 8 23 22 10 11 11 4 10 2 6 6 5 12 9 16 23 18 31 32 36 44 42 40 33 39 43 35 37 47 51 52 45 43 50 48 51 47 42 45 46 47 45 42 46 45 45 46 45 44 45 46 44 45 44 48 51 53 47 47 44 44 42 43 37 37 37 29 29 29 35 37 31 26 32 31 23 24 15 27 24 27 33 30 33 35 37 36 29 40 38 42 41 38 43 41 41 39 40 36 34 33 30 30 31 32 34 33 37 29 27 25 24 30 24 20 19 23 20 20 16 13 19 17 18 6 5 15 13 32 1 1 31 37 9 1 1 1 5 1 1 1 1 1 1 0 0 0 0 0 0 
0 0 1 0 1 1 1 1 1 0 1 1 1 1 1 1 1 1 1 1 1 8 6 12 2 2 17 9 9 4 4 10 9 6 4 5 2 7 2 5 5 3 9 7 9 15 11 13 16 17 23 22 25 21 32 39 31 39 47 48 50 45 43 47 48 47 43 42 46 46 47 44 43 45 46 48 46 45 46 47 48 45 45 43 43 45 45 42 43 41 44 41 36 27 25 27 23 23 22 30 32 27 15 16 18 17 18 17 15 15 20 28 22 22 16 20 22 11 14 18 24 20 18 22 30 32 29 25 28 32 30 29 25 24 24 24 24 27 30 31 28 27 32 26 22 22 23 22 22 18 17 20 18 20 9 6 16 12 20 1 1 32 36 12 1 1 3 6 1 1 1 1 1 0 0 0 0 1 0 0 
0 0 1 1 1 1 1 1 1 1 1 1 1 1 1 1 1 1 1 1 1 2 3 6 1 2 10 10 12 3 5 9 6 4 2 2 2 3 1 2 2 1 4 5 6 8 7 8 12 16 17 10 10 11 16 24 26 26 45 45 48 45 42 47 46 49 45 44 48 49 48 48 48 47 48 49 46 46 45 45 44 42 39 41 41 37 34 20 23 30 32 27 20 17 16 15 14 10 11 9 10 9 9 9 8 9 9 9 9 9 9 9 9 9 9 9 10 10 13 14 17 13 13 19 20 20 9 8 12 14 12 9 11 12 19 18 19 19 18 23 24 29 32 31 30 27 28 23 22 16 17 26 19 22 10 9 17 11 21 1 1 35 35 27 1 1 4 6 1 1 1 1 1 1 0 0 0 0 0 0 
0 1 1 1 1 1 1 1 1 1 0 0 1 1 1 0 1 1 1 1 1 2 5 6 1 3 15 16 27 8 13 23 14 19 10 13 12 11 9 5 5 2 7 7 7 12 11 12 14 18 17 13 13 20 22 30 31 35 49 45 48 51 45 50 50 51 48 45 45 45 45 41 42 44 42 44 41 37 35 32 36 30 24 30 27 26 24 18 17 21 19 16 12 11 9 8 8 7 7 7 7 8 8 8 7 8 9 10 12 12 17 22 30 30 19 20 39 41 42 37 39 46 43 42 40 37 37 29 32 27 27 20 13 19 15 13 11 12 12 10 10 13 17 22 25 26 31 33 28 20 18 24 27 27 15 11 18 12 24 1 1 26 35 28 1 1 4 7 1 1 1 1 1 1 0 0 0 0 0 0 
1 1 1 1 1 1 1 1 1 0 1 1 1 1 1 1 1 2 3 1 1 11 12 14 1 1 23 22 23 9 13 51 20 48 18 18 26 12 14 8 8 10 7 10 8 13 13 13 20 20 23 19 13 37 41 43 49 43 48 43 45 45 31 35 41 44 41 26 23 30 29 20 13 17 17 17 17 17 16 20 24 19 18 17 15 14 12 11 11 12 12 10 8 6 5 4 3 6 5 7 7 8 9 7 6 7 9 12 20 25 37 45 45 46 37 40 48 50 51 46 49 52 51 53 45 47 51 47 49 44 41 46 33 45 25 26 24 16 16 16 16 11 10 10 9 8 13 17 24 22 19 23 30 32 17 14 22 16 20 3 1 15 24 36 1 1 3 9 1 1 1 1 1 0 0 0 0 0 0 0 
1 1 1 1 1 1 0 1 1 0 1 1 1 1 1 1 2 4 6 1 1 8 8 8 1 1 10 10 10 6 9 30 19 40 12 14 59 13 24 9 9 10 7 12 13 22 24 10 25 32 32 24 15 45 45 51 47 25 32 25 24 23 14 17 21 21 16 10 18 25 30 20 16 34 32 29 25 20 24 23 23 17 16 14 14 15 11 9 8 9 10 7 9 6 7 6 4 9 6 7 8 6 9 8 8 10 17 25 32 30 40 51 51 56 48 52 59 58 57 53 54 56 55 53 49 49 53 45 51 42 40 51 47 49 35 33 48 35 40 19 18 20 14 13 10 8 8 7 8 7 7 14 22 23 18 15 24 18 17 5 2 17 11 23 1 1 3 11 1 1 1 1 1 0 0 0 0 0 0 0 
1 1 1 1 1 0 0 1 1 0 1 1 1 1 1 1 8 10 9 1 1 8 8 8 2 3 8 8 8 5 6 12 11 25 8 9 47 11 22 8 10 44 12 46 44 42 39 16 41 38 49 48 26 40 31 27 19 17 27 33 30 24 17 42 41 51 47 32 48 50 51 55 46 61 54 54 51 28 42 41 41 41 17 28 19 13 10 10 7 7 8 4 9 6 9 10 9 13 7 7 8 6 31 19 14 22 25 48 39 42 42 49 42 54 45 51 61 62 68 55 56 63 59 62 45 43 54 48 51 43 44 50 45 46 37 34 51 49 50 24 21 50 37 37 12 10 10 10 8 4 3 3 3 7 10 15 28 30 22 7 4 14 10 11 1 1 5 27 1 1 1 1 1 1 0 0 0 0 0 0 
1 1 1 0 0 0 0 1 1 1 1 1 2 2 1 1 12 2 8 1 1 8 4 8 1 2 9 8 9 6 7 12 10 21 7 8 35 9 38 12 16 47 21 46 45 48 45 26 47 41 48 39 17 23 30 32 30 21 41 41 46 50 31 55 46 49 47 37 55 56 56 62 39 59 56 56 58 41 59 47 50 57 29 51 45 45 46 44 35 28 24 11 29 9 8 9 6 13 7 8 10 11 33 23 18 38 47 52 34 22 23 42 41 52 44 51 65 59 67 56 55 71 62 72 57 55 72 64 71 58 56 62 55 61 45 43 50 50 49 31 36 41 45 40 20 17 32 34 11 4 3 4 3 1 1 2 9 18 30 9 3 13 10 8 1 1 6 29 1 1 1 1 1 1 0 0 0 0 0 0 
0 0 0 0 0 0 1 1 1 1 1 2 4 7 1 1 15 2 12 1 1 8 2 9 4 6 10 9 13 6 7 30 9 30 10 12 36 18 47 26 28 50 22 48 43 47 46 35 52 42 32 24 13 21 30 34 30 23 34 31 36 52 28 55 46 55 69 52 69 64 69 73 56 66 59 62 66 49 61 48 52 62 37 59 55 55 59 62 62 62 58 55 57 39 30 22 15 25 15 13 12 14 45 27 16 25 35 34 36 25 28 42 39 45 30 31 48 49 52 41 42 54 58 59 54 54 58 60 57 51 50 57 55 57 53 56 61 60 63 50 43 54 51 51 24 24 39 35 24 6 3 3 3 1 1 1 1 2 4 5 2 16 17 12 1 1 7 13 1 1 1 1 1 1 1 0 0 0 0 0 
0 0 0 1 1 0 1 2 1 1 1 8 6 7 1 1 8 1 12 1 1 10 1 12 3 3 24 10 25 10 9 32 11 28 14 21 43 24 44 33 34 39 34 31 35 32 30 30 25 24 24 19 24 24 29 29 26 30 34 37 38 44 37 38 32 32 38 22 55 52 60 68 56 76 67 67 70 52 56 48 48 59 42 60 58 65 71 73 71 64 67 72 78 64 64 56 51 52 45 44 46 51 54 50 45 44 49 47 51 44 44 52 52 52 44 41 53 53 53 49 43 54 59 51 37 37 54 58 53 45 45 55 56 52 44 43 50 50 47 40 35 45 42 36 25 23 29 29 23 13 8 9 7 2 1 1 1 1 1 1 1 1 1 3 1 1 11 14 1 1 1 1 1 1 0 0 0 0 0 0 
0 1 1 1 1 1 1 2 2 1 1 4 1 1 1 1 1 1 1 1 1 7 7 9 5 7 22 30 30 24 26 35 34 27 25 26 26 32 24 27 24 23 37 28 34 32 32 45 44 46 47 46 51 57 52 54 57 62 65 53 52 61 55 51 40 39 37 34 41 45 48 59 49 65 65 65 70 64 70 67 63 63 58 62 58 61 66 68 77 77 78 85 85 80 68 65 68 68 63 65 62 65 64 65 61 56 58 55 61 56 56 56 60 57 57 56 62 62 61 59 58 55 56 52 50 45 47 45 44 29 29 42 52 42 32 30 36 37 34 27 27 31 32 31 23 23 24 24 20 13 9 14 16 7 2 1 2 2 1 1 1 1 1 1 1 1 1 4 2 1 1 1 1 1 1 1 0 0 0 0 
0 0 1 1 1 1 1 1 1 1 1 1 1 1 1 1 1 1 1 1 1 3 12 10 9 11 25 35 33 26 24 30 50 41 46 45 49 57 52 49 56 61 67 65 57 55 57 61 57 56 55 59 63 68 56 57 62 62 57 51 50 50 54 54 47 49 54 45 36 31 36 41 38 52 47 52 61 51 63 58 60 59 56 62 63 63 71 75 76 77 76 73 79 79 77 70 82 79 81 72 70 69 63 68 65 65 70 61 73 67 66 66 63 62 59 59 58 60 58 53 55 60 62 61 52 50 51 50 52 42 42 51 51 47 35 37 44 46 45 29 25 39 35 31 19 18 22 23 19 18 13 19 24 16 3 2 8 9 3 1 1 1 1 1 1 1 1 1 4 1 1 1 1 1 0 0 0 0 0 0 
0 0 1 1 1 1 1 2 1 1 1 1 1 1 1 1 1 2 3 2 2 9 14 10 9 16 46 53 52 40 45 62 65 70 58 58 68 67 72 51 55 67 69 84 63 65 67 61 61 53 57 77 78 97 58 63 69 67 59 42 46 52 59 62 56 56 65 64 62 58 54 58 57 61 56 59 70 68 69 63 67 76 73 74 67 74 80 90 85 72 76 83 89 77 78 72 76 74 81 79 78 87 77 87 77 72 70 60 66 62 65 74 60 71 65 61 64 56 65 57 55 64 58 63 58 58 59 45 61 45 44 53 45 60 44 44 51 43 46 32 30 51 45 48 32 25 41 45 40 19 17 26 28 21 7 2 13 21 9 1 1 3 3 1 1 1 1 1 2 1 1 1 1 1 0 0 0 0 0 0 
0 0 1 1 1 1 1 1 1 1 1 1 1 1 1 1 2 8 7 3 4 10 16 11 10 12 36 57 54 41 46 62 61 63 51 50 59 56 57 51 53 77 68 94 62 65 117 98 114 71 73 103 87 79 58 58 65 62 59 45 48 62 63 59 48 60 65 66 68 62 64 73 77 70 67 68 75 79 77 68 72 78 85 85 74 76 100 100 103 97 103 111 103 104 90 90 92 79 87 81 76 76 63 68 64 69 83 70 84 72 68 66 59 68 64 63 67 60 66 55 58 67 55 68 56 54 65 57 67 38 39 55 50 65 33 40 64 48 60 42 49 64 62 62 42 39 52 56 48 27 23 44 54 38 11 7 15 25 14 1 1 4 5 3 1 1 2 3 3 1 1 1 1 1 0 0 0 0 0 0 
0 0 1 1 1 1 1 1 1 1 1 2 2 3 1 1 6 10 7 3 3 13 33 15 8 10 26 41 42 37 35 48 51 60 54 51 70 67 64 53 56 83 76 98 74 75 92 82 87 56 56 65 60 60 56 55 66 68 67 52 53 61 61 58 49 49 59 56 55 52 60 74 78 79 70 66 72 72 72 68 70 80 85 86 81 74 85 78 80 72 74 83 80 94 79 80 94 78 99 71 70 84 57 67 64 68 78 68 80 69 67 67 57 64 56 59 76 64 84 70 69 86 68 84 70 66 81 67 89 63 61 86 72 76 59 52 64 70 74 52 53 66 70 70 43 30 62 68 56 29 28 64 62 43 11 8 26 32 19 2 1 7 7 3 1 1 1 2 1 1 1 1 1 1 0 0 0 0 0 0 
0 0 1 1 0 0 1 1 1 1 1 2 3 4 1 1 7 9 9 3 4 12 29 14 8 11 27 51 35 29 37 52 61 65 58 56 64 63 73 55 60 76 76 90 75 83 124 125 123 78 72 72 64 67 59 60 67 65 65 54 57 57 62 70 70 66 72 66 66 59 61 73 78 82 70 76 84 80 74 70 72 80 88 81 77 80 94 82 84 81 85 101 90 105 92 92 106 81 90 73 73 86 73 77 62 65 71 64 68 67 67 78 65 74 64 61 63 57 69 63 61 65 64 75 62 57 67 67 77 60 59 74 71 78 60 61 79 83 86 64 65 97 79 72 38 33 62 59 44 15 15 51 60 46 8 4 19 26 16 2 1 5 6 2 1 1 1 2 1 1 1 1 1 1 0 0 0 0 0 0 
0 0 1 0 0 1 1 1 1 1 1 1 3 2 1 1 6 10 8 2 3 13 23 12 8 10 24 44 41 28 25 52 57 61 55 53 69 68 69 54 55 70 66 74 59 64 103 111 126 100 96 116 104 100 62 61 69 52 56 53 51 60 59 65 64 66 78 73 77 67 68 72 67 81 72 74 92 88 79 64 68 76 75 72 65 69 78 74 72 63 67 74 73 74 73 74 84 77 93 78 78 99 67 91 68 61 73 65 70 62 62 70 67 67 62 59 65 59 68 67 63 68 65 67 62 60 71 68 71 59 58 76 70 76 57 55 59 59 61 43 33 63 57 60 35 30 52 52 41 16 12 38 53 36 6 4 16 21 12 1 1 3 4 2 1 1 1 1 1 1 1 1 1 0 0 0 0 0 0 0 
0 0 0 0 0 1 1 1 1 1 1 1 2 1 1 1 4 8 8 1 2 11 18 10 4 6 30 53 27 13 15 44 53 51 42 45 69 68 75 49 49 63 65 67 59 58 72 80 86 67 66 107 114 126 112 102 123 94 88 63 59 73 68 77 66 65 80 73 91 71 77 80 70 83 78 75 91 80 91 72 77 92 80 79 71 69 78 79 72 66 65 70 67 66 57 61 70 68 67 62 67 69 74 78 86 85 104 107 107 84 83 88 86 82 70 66 71 67 76 65 65 70 65 66 60 60 79 69 85 64 64 73 64 67 45 51 71 77 72 58 48 64 68 67 36 34 49 55 44 17 11 33 45 25 2 1 11 23 8 1 1 2 2 1 1 1 1 1 1 1 1 1 1 0 0 0 0 0 0 0 
0 0 0 0 0 1 1 1 1 1 1 1 2 1 1 1 2 6 6 1 1 9 12 10 3 4 16 30 19 10 16 45 57 55 41 43 71 69 71 55 56 76 69 78 60 55 75 68 77 66 74 95 106 126 91 93 138 124 131 105 104 126 105 116 74 82 115 68 92 64 66 76 62 80 70 72 118 76 116 78 90 116 79 102 91 82 86 73 83 71 73 80 65 78 73 69 72 52 68 60 60 68 70 71 71 76 89 100 111 83 70 86 92 104 80 75 89 81 85 70 71 81 70 72 60 55 70 65 89 58 59 79 71 90 61 63 77 77 76 53 47 65 63 68 35 37 59 64 41 12 9 25 29 14 2 1 5 11 2 1 1 2 2 1 1 1 1 2 1 1 1 1 1 0 0 0 0 0 0 0 
0 0 0 0 0 0 1 1 1 1 1 1 2 1 1 1 3 5 5 1 1 9 12 9 2 2 12 23 11 7 7 25 48 44 24 29 67 72 67 36 34 78 69 69 52 52 64 70 73 60 62 76 71 88 76 80 107 104 96 86 83 133 114 123 103 100 109 104 102 81 73 101 82 88 79 80 111 77 107 72 74 111 65 133 73 76 117 66 120 75 78 99 62 114 78 77 115 105 119 86 87 95 92 84 67 65 64 70 83 68 71 106 98 116 91 80 104 85 108 71 74 86 72 69 64 62 70 70 81 59 52 62 55 68 51 53 64 68 70 45 41 59 69 61 25 22 48 56 40 9 5 19 21 8 1 1 2 4 1 1 1 1 1 1 1 1 1 1 1 1 0 0 0 0 0 0 0 0 0 0 
0 0 0 0 0 0 0 1 1 1 1 1 1 1 1 1 3 3 3 1 1 6 9 6 1 2 11 16 9 4 7 21 34 25 8 11 39 55 52 31 42 74 73 63 42 42 71 70 75 62 58 76 76 75 58 61 72 66 72 70 80 105 105 91 74 68 73 81 73 70 76 90 99 107 96 100 129 116 127 98 108 133 121 125 92 100 131 106 127 82 87 102 80 92 73 79 111 121 133 126 121 132 127 119 84 82 103 91 115 96 104 129 123 121 81 80 121 107 111 78 70 93 76 78 63 65 76 73 81 59 56 84 66 69 43 40 60 64 64 38 35 56 63 54 23 17 28 51 20 7 3 10 19 5 1 1 2 2 1 1 1 1 2 1 1 1 1 1 1 0 0 0 0 0 0 0 0 0 0 0 
0 0 0 0 0 0 0 1 1 0 1 1 1 1 1 1 1 5 2 1 1 5 5 5 1 1 7 11 8 4 4 12 24 16 6 7 24 41 27 20 24 48 65 62 32 28 63 69 67 49 51 74 72 74 63 64 103 86 88 62 61 66 70 74 62 65 77 80 78 80 86 111 108 107 81 88 127 118 133 96 85 107 100 105 91 100 128 120 121 99 81 100 91 88 80 88 118 120 130 105 100 127 108 123 86 98 124 118 129 91 94 123 100 99 76 71 79 77 108 90 88 109 96 96 77 70 78 71 68 54 56 73 76 77 57 51 62 47 56 34 26 46 50 48 17 9 21 25 12 2 1 4 12 3 1 1 1 1 1 1 1 1 5 1 1 0 1 1 0 0 0 0 0 0 0 0 0 0 0 0 
0 0 0 0 0 0 0 0 0 0 0 1 1 1 1 1 1 2 1 1 1 3 4 4 1 1 5 8 6 1 2 8 16 10 4 6 15 25 22 8 13 32 62 31 19 22 53 67 61 41 35 68 71 70 47 55 84 86 89 70 70 98 84 77 60 65 77 76 80 69 78 99 96 98 74 73 109 88 103 83 91 125 123 125 88 87 119 121 114 93 77 100 105 114 93 108 112 112 107 87 80 102 98 111 88 83 110 112 125 86 77 88 76 85 69 69 97 79 91 66 68 79 69 76 62 59 70 62 66 44 45 65 63 63 41 39 51 43 34 24 21 29 30 28 9 6 15 17 8 1 1 3 5 2 1 1 1 1 4 1 1 1 1 1 0 1 0 0 0 0 0 0 0 0 0 0 0 0 0 0 
0 0 0 0 0 0 0 0 0 0 0 0 1 1 1 1 1 1 1 1 1 1 3 2 1 1 4 5 5 1 1 6 9 8 2 4 14 27 15 7 8 21 34 17 15 17 35 59 39 26 28 47 67 55 28 31 71 71 77 53 60 86 79 73 69 73 72 83 85 71 72 118 88 107 79 79 99 93 95 90 79 119 90 103 77 88 104 85 97 80 78 86 81 92 79 79 86 84 96 78 73 85 78 81 68 68 81 92 104 78 75 91 74 85 65 66 80 82 90 73 70 78 74 68 53 51 74 86 78 50 42 51 64 58 37 34 52 55 38 14 11 22 20 13 5 3 8 13 5 1 1 3 2 1 1 1 2 6 1 1 1 1 1 0 0 0 0 0 0 0 0 0 0 0 0 0 0 0 0 0 
0 0 0 0 0 0 0 0 0 0 0 0 0 0 0 1 1 1 1 1 1 1 5 1 1 1 2 4 4 1 1 6 7 6 1 1 7 11 9 4 4 10 18 13 8 10 23 37 22 16 20 36 52 43 28 24 46 67 64 35 36 67 59 59 49 50 74 81 74 66 71 84 77 76 59 65 79 86 104 78 77 81 71 77 73 84 100 92 87 72 66 85 74 80 70 70 84 77 86 73 72 87 74 80 58 56 70 76 86 68 67 79 74 87 64 60 70 66 76 51 53 66 65 67 39 49 65 70 65 37 32 46 52 39 23 17 25 34 19 9 8 12 16 11 4 2 5 7 5 1 1 2 1 2 1 1 1 3 1 1 0 1 1 0 0 0 0 0 0 0 0 0 0 0 0 0 0 0 0 0 
0 0 0 0 0 0 0 0 0 0 0 0 0 0 0 0 0 1 0 0 1 1 1 1 1 1 1 2 1 1 1 4 5 6 1 1 6 8 7 1 1 9 12 12 6 6 14 19 16 9 11 21 37 19 15 20 33 49 30 25 23 27 36 48 30 33 64 80 69 39 32 58 71 69 55 70 85 88 83 61 55 62 53 65 53 57 78 88 100 62 64 104 94 104 77 70 98 86 94 64 59 92 86 85 55 47 64 64 67 52 49 64 63 61 54 52 65 76 67 44 38 61 57 51 32 40 51 59 55 24 21 31 47 35 13 11 13 17 12 6 5 10 14 7 2 1 4 4 3 1 1 1 4 1 1 1 1 1 1 0 0 0 0 0 0 0 0 0 0 0 0 0 0 0 0 0 0 0 0 0 
0 0 0 0 0 0 0 0 0 0 0 0 0 0 0 0 0 0 0 0 0 1 1 1 1 1 1 1 1 1 1 1 2 1 1 1 5 6 6 1 1 8 10 10 1 2 11 13 13 6 8 14 28 13 7 7 21 28 17 11 16 30 48 34 23 24 34 53 36 27 26 41 57 53 37 44 67 78 68 44 41 55 78 79 54 60 79 90 81 62 56 100 100 107 73 70 86 80 82 60 56 74 87 96 73 59 86 62 51 30 25 28 36 40 24 24 47 68 63 24 23 38 45 33 24 23 36 40 29 21 15 21 23 16 8 7 10 16 9 4 2 7 7 5 1 1 3 1 2 1 1 1 7 1 1 1 1 1 0 0 0 0 0 0 0 0 0 0 0 0 0 0 0 0 0 0 0 0 0 0 
0 0 0 0 0 0 0 0 0 0 0 0 0 0 0 0 0 0 0 0 0 0 0 1 0 0 1 1 1 1 1 1 1 1 1 1 1 3 2 1 1 4 7 6 1 1 7 10 8 1 1 11 15 10 2 2 5 14 8 3 3 16 30 16 8 9 19 32 19 13 13 26 39 25 20 22 37 54 30 22 21 36 67 56 34 31 54 60 64 39 44 73 78 86 43 43 74 81 66 38 40 54 73 66 44 44 80 61 55 24 30 36 33 21 19 14 20 48 47 18 19 28 51 34 14 14 25 24 21 10 8 17 17 12 6 3 9 12 7 2 1 5 3 3 1 1 1 3 2 1 1 1 1 1 1 1 1 0 0 0 0 0 0 0 0 0 0 0 0 0 0 0 0 0 0 0 0 0 0 0 
0 0 0 0 0 0 0 0 0 0 0 0 0 0 0 0 0 0 0 0 0 0 0 0 0 0 0 1 0 0 0 1 1 1 1 1 1 1 1 1 1 1 3 1 1 1 3 6 5 1 1 7 7 7 1 1 2 4 2 1 1 10 11 9 5 5 11 18 15 7 8 18 33 29 12 12 30 49 31 12 11 29 42 25 14 15 20 29 29 21 22 41 66 40 29 29 48 69 33 23 17 29 47 32 32 29 41 52 35 22 22 24 32 15 12 12 16 22 22 16 16 26 35 21 11 8 20 20 14 7 5 12 12 10 2 1 7 6 4 1 1 2 1 3 1 1 1 3 1 1 1 1 1 1 0 0 0 0 0 0 0 0 0 0 0 0 0 0 0 0 0 0 0 0 0 0 0 0 0 0 
0 0 0 0 0 0 0 0 0 0 0 0 0 0 0 0 0 0 0 0 0 0 0 0 0 0 0 0 0 0 0 0 1 0 0 0 1 1 1 1 1 1 1 1 1 1 1 10 1 1 1 2 4 4 1 1 3 2 3 1 1 5 5 6 1 2 9 11 7 2 3 10 13 13 8 8 16 22 19 11 11 24 25 17 10 9 15 24 28 12 11 37 36 22 13 13 20 27 16 15 12 16 24 18 13 12 19 27 20 13 10 17 22 13 10 10 12 14 13 9 8 14 22 15 7 5 13 17 12 3 1 8 8 5 1 1 3 2 3 1 1 1 14 1 1 1 1 1 1 1 0 0 1 0 0 0 0 0 0 0 0 0 0 0 0 0 0 0 0 0 0 0 0 0 0 0 0 0 0 0 
0 0 0 0 0 0 0 0 0 0 0 0 0 0 0 0 0 0 0 0 0 0 0 0 0 0 0 0 0 0 0 0 0 0 0 0 0 1 0 0 0 1 1 1 1 1 1 1 1 1 1 1 13 1 1 1 2 6 2 1 1 2 2 2 1 1 4 5 6 1 1 6 7 8 1 1 11 13 12 2 4 15 14 14 7 7 19 20 17 9 8 19 20 19 11 8 15 17 14 9 10 16 19 15 7 8 13 17 15 8 8 13 17 11 7 5 11 12 11 5 4 9 11 9 1 1 6 7 6 1 1 3 3 5 1 1 2 17 1 1 1 1 1 1 1 0 1 1 0 0 0 0 0 0 0 0 0 0 0 0 0 0 0 0 0 0 0 0 0 0 0 0 0 0 0 0 0 0 0 0 
0 0 0 0 0 0 0 0 0 0 0 0 0 0 0 0 0 0 0 0 0 0 0 0 0 0 0 0 0 0 0 0 0 0 0 0 0 0 0 0 0 0 1 0 0 0 1 1 1 1 1 1 1 1 1 1 1 1 1 1 1 1 9 1 1 1 1 13 1 1 1 2 2 2 1 1 5 6 8 1 1 9 11 11 1 1 10 14 14 1 1 16 17 13 1 1 13 17 13 2 2 12 13 11 2 2 11 13 10 2 2 10 12 8 1 1 7 8 8 1 1 6 5 5 1 1 3 5 8 1 1 1 10 1 1 1 1 1 1 1 1 0 1 0 0 0 0 0 0 0 0 0 0 0 0 0 0 0 0 0 0 0 0 0 0 0 0 0 0 0 0 0 0 0 0 0 0 0 0 0 
0 0 0 0 0 0 0 0 0 0 0 0 0 0 0 0 0 0 0 0 0 0 0 0 0 0 0 0 0 0 0 0 0 0 0 0 0 0 0 0 0 0 0 0 0 0 0 1 1 1 1 1 1 1 0 1 1 1 1 0 1 1 1 1 1 0 1 1 1 1 1 1 1 1 1 1 1 6 1 1 1 1 11 1 1 1 3 6 4 1 1 5 6 6 1 1 7 8 8 1 1 6 7 7 1 1 8 6 7 1 1 7 8 9 1 1 7 13 14 1 1 4 24 4 1 1 1 6 1 1 1 1 1 1 1 1 1 1 1 0 0 0 0 0 0 0 0 0 0 0 0 0 0 0 0 0 0 0 0 0 0 0 0 0 0 0 0 0 0 0 0 0 0 0 0 0 0 0 0 0 
0 0 0 0 0 0 0 0 0 0 0 0 0 0 0 0 0 0 0 0 0 0 0 0 0 0 0 0 0 0 0 0 0 0 0 0 0 0 0 0 0 0 0 0 0 1 1 1 1 1 1 1 1 1 1 0 0 0 0 1 1 1 3 1 2 4 3 3 1 1 1 1 1 1 1 0 1 1 1 0 1 1 1 1 1 1 1 1 1 1 1 1 2 1 1 1 1 7 1 1 1 1 11 1 1 1 1 9 1 1 1 1 8 1 1 1 1 4 1 1 1 1 1 1 1 1 1 1 1 0 1 1 1 0 0 0 0 0 0 0 0 0 0 0 0 0 0 0 0 0 0 0 0 0 0 0 0 0 0 0 0 0 0 0 0 0 0 0 0 0 0 0 0 0 0 0 0 0 0 0 
0 0 0 0 0 0 0 0 0 0 0 0 0 0 0 0 0 0 0 0 0 0 0 0 0 0 0 0 0 0 0 0 0 0 0 0 0 0 0 0 0 0 0 0 0 1 1 1 1 1 1 1 1 2 3 3 5 6 5 5 19 18 11 10 10 11 12 11 11 8 4 1 0 0 1 1 1 1 1 1 0 0 1 1 0 0 1 1 1 1 1 1 2 1 3 1 1 3 1 1 1 1 1 1 1 1 1 1 1 1 0 1 1 1 0 1 1 1 1 1 0 0 1 0 0 0 0 0 0 0 0 0 0 0 0 0 0 0 0 0 0 0 0 0 0 0 0 0 0 0 0 0 0 0 0 0 0 0 0 0 0 0 0 0 0 0 0 0 0 0 0 0 0 0 0 0 0 0 0 0 
0 0 0 0 0 0 0 0 0 0 0 0 0 0 0 0 0 0 0 0 0 0 0 0 0 0 0 0 0 0 0 0 0 0 0 0 0 0 0 0 0 0 0 0 0 0 0 0 0 1 0 1 1 2 6 8 10 10 12 14 36 46 32 19 15 13 12 12 13 16 17 17 25 28 23 41 24 12 6 4 1 1 0 0 0 0 0 0 1 1 1 1 3 6 5 1 1 1 1 1 1 1 1 1 0 0 0 0 0 0 0 0 0 0 0 0 0 0 0 0 0 0 0 0 0 0 0 0 0 0 0 0 0 0 0 0 0 0 0 0 0 0 0 0 0 0 0 0 0 0 0 0 0 0 0 0 0 0 0 0 0 0 0 0 0 0 0 0 0 0 0 0 0 0 0 0 0 0 0 0 
