P2
180 36
255
2 3 7 4 6 8 11 28 14 11 10 10 19 11 11 11 15 24 25 24 26 41 39 60 49 50 77 58 73 62 68 86 62 57 55 53 40 39 37 45 48 35 39 51 59 65 69 65 74 74 81 77 67 71 82 85 76 67 74 79 80 63 57 64 72 74 61 54 62 72 74 61 58 63 74 74 60 57 55 57 58 55 56 58 69 75 82 70 73 61 59 53 48 39 37 36 30 28 29 32 33 30 26 29 30 27 32 29 37 39 47 63 52 65 54 55 55 43 56 51 53 52 51 55 54 58 52 52 49 52 53 43 43 43 47 51 44 51 45 45 44 41 43 38 34 30 34 30 37 29 28 38 29 37 25 24 34 28 39 26 26 32 32 27 18 16 16 18 11 8 6 5 5 2 1 1 0 0 0 0 
2 2 6 5 7 9 11 27 11 9 8 9 18 10 10 10 13 20 16 15 15 22 24 32 29 34 58 47 56 47 49 51 40 40 45 46 35 36 35 42 45 34 38 56 60 65 69 58 64 63 65 57 53 58 66 73 59 61 70 77 79 63 58 63 72 76 60 54 61 73 75 62 62 65 74 76 64 62 62 71 72 59 56 56 65 66 61 58 63 59 57 52 38 29 25 27 24 24 24 27 29 28 22 22 22 23 25 24 26 28 31 40 32 32 29 32 31 24 24 26 32 28 28 32 40 43 40 37 40 48 48 41 38 36 40 40 35 37 39 42 41 40 46 39 35 32 35 30 33 27 26 36 29 38 26 26 37 29 39 28 28 32 31 31 21 19 18 20 11 8 6 5 7 2 1 1 0 0 0 0 
0 1 5 5 5 5 6 13 6 6 7 7 13 7 7 8 9 16 11 10 11 17 20 24 20 24 43 34 36 29 34 33 29 33 41 43 34 32 31 40 40 28 33 46 56 67 66 54 55 59 60 45 41 42 50 58 51 53 63 68 75 63 58 63 72 75 62 59 68 77 81 69 69 68 75 80 64 63 62 71 75 59 53 52 56 52 43 38 41 43 40 36 26 23 20 19 16 14 14 13 14 13 13 13 15 15 15 17 14 16 19 17 19 16 16 17 15 16 19 21 24 21 21 24 28 30 23 23 25 31 32 25 26 27 33 33 27 27 28 34 33 33 40 39 39 36 38 33 34 29 27 34 28 36 24 25 36 29 39 27 28 34 32 32 23 22 22 23 11 8 6 5 7 2 1 1 0 0 0 0 
0 0 3 4 4 4 3 6 3 3 4 4 9 5 5 5 7 13 9 9 10 18 19 21 14 14 24 25 39 34 40 52 40 52 44 46 35 34 34 38 40 28 33 40 48 54 50 47 54 60 61 44 41 44 51 59 55 57 68 65 73 67 61 66 71 77 66 66 68 77 78 63 63 65 74 78 63 59 58 68 71 50 46 46 50 43 36 31 29 31 28 22 17 15 13 11 11 10 10 8 9 11 15 14 15 16 15 22 20 20 24 26 31 29 27 28 32 33 36 35 36 38 38 38 36 36 35 31 33 31 33 29 27 31 31 30 24 23 23 27 26 24 26 30 35 34 38 41 35 30 29 35 32 38 27 24 34 28 39 26 27 35 34 36 25 24 26 28 13 8 6 5 5 1 1 1 0 0 0 0 
0 1 2 2 3 4 3 4 2 2 2 3 7 4 4 4 5 9 8 9 12 19 19 22 18 21 37 41 45 37 44 75 57 78 58 60 74 55 66 53 54 50 41 41 42 47 43 44 52 57 60 47 45 54 66 74 75 63 62 62 66 56 49 50 58 64 51 45 47 55 60 43 39 42 50 57 45 44 44 56 57 41 39 34 38 36 25 25 28 37 35 20 14 10 8 5 5 6 6 8 10 13 19 14 15 16 19 26 28 30 34 38 37 39 34 34 39 40 42 38 40 43 43 43 38 39 42 40 42 39 40 39 36 39 35 35 31 28 30 31 28 24 23 21 23 22 22 25 30 30 30 31 30 34 25 23 30 24 32 22 23 36 33 39 28 27 32 37 18 10 7 4 3 1 1 0 0 0 0 0 
1 2 2 1 1 1 1 4 2 2 2 2 4 3 3 4 5 8 10 9 10 14 13 13 12 14 26 37 35 34 38 63 62 81 70 75 104 68 84 57 57 66 47 58 52 52 44 41 47 62 69 57 56 70 84 89 74 59 58 67 68 51 46 49 65 70 47 44 48 59 65 47 45 51 55 56 45 42 45 52 55 39 35 30 33 32 24 23 24 31 33 20 21 16 19 16 13 18 12 13 13 11 17 13 13 17 22 30 32 31 38 46 43 50 45 46 53 51 54 47 47 50 47 48 40 40 45 40 44 38 40 42 39 41 36 37 37 35 35 32 31 31 28 26 23 23 18 17 18 21 20 23 25 26 24 22 28 23 28 21 24 36 33 41 30 33 41 47 26 13 8 4 3 1 0 0 0 0 0 0 
1 2 1 0 0 0 1 4 3 3 3 3 6 6 5 6 12 16 18 12 11 14 18 15 14 15 19 27 22 21 23 36 42 56 52 63 105 73 98 69 68 88 60 75 65 67 62 51 64 71 81 76 66 68 73 75 57 54 58 69 70 53 51 62 73 82 66 61 68 79 82 69 62 74 80 77 61 50 53 57 59 50 41 42 38 31 22 22 21 27 30 23 34 23 26 24 21 33 21 20 22 23 36 28 27 30 35 44 42 42 43 53 48 60 52 57 67 64 69 58 57 64 60 63 48 47 53 49 52 42 42 46 43 45 36 36 41 39 40 35 34 36 35 35 31 30 27 25 21 18 16 14 13 17 20 21 30 29 33 22 22 34 27 35 25 29 46 66 39 21 11 7 4 1 0 0 0 0 0 0 
1 1 0 0 0 0 1 7 5 5 5 4 8 11 16 20 29 22 19 13 12 16 19 17 14 16 21 27 25 23 25 39 41 53 46 53 79 62 78 56 55 71 55 72 66 70 72 57 73 73 78 60 50 53 67 69 55 51 60 70 74 65 57 70 72 78 67 61 73 78 83 74 62 73 77 81 69 58 66 66 67 62 48 53 49 51 48 50 42 38 36 29 41 27 27 26 24 38 25 26 28 30 43 35 34 39 45 49 44 38 39 50 48 55 50 57 67 64 68 59 58 66 61 66 55 56 65 63 64 53 52 58 54 55 43 42 45 44 42 36 35 37 39 35 32 33 32 34 29 28 27 22 16 15 16 14 22 24 33 24 22 28 21 29 20 20 34 60 58 33 22 13 8 1 0 0 0 0 0 0 
0 0 0 0 2 4 6 13 6 5 6 9 16 28 28 31 39 22 21 12 12 20 19 24 20 21 30 30 36 29 32 52 47 81 67 72 103 74 99 71 70 90 67 85 74 75 78 62 75 68 71 54 46 48 57 62 51 47 55 61 67 62 55 67 70 76 75 69 81 79 86 83 71 78 73 75 71 58 69 67 66 65 51 59 57 62 63 65 61 59 57 55 57 44 37 34 31 44 31 30 32 35 46 40 36 37 40 40 41 35 37 45 44 49 43 44 53 52 54 49 49 56 57 57 52 52 57 59 56 48 46 52 52 50 45 46 52 51 51 43 43 45 43 43 35 37 35 35 31 28 26 21 21 13 14 12 17 13 20 15 17 24 22 23 16 16 24 27 50 44 33 23 16 3 1 0 0 0 0 0 
0 0 1 4 7 10 11 14 11 9 10 18 19 32 24 23 33 19 25 16 16 18 14 21 20 24 39 33 45 38 40 56 44 65 59 62 75 57 65 57 55 59 49 47 51 51 45 45 44 53 55 42 44 43 52 57 46 46 50 54 59 55 51 55 55 60 56 51 64 65 71 72 60 75 67 71 73 56 63 60 59 60 48 58 56 64 71 71 72 65 67 72 72 65 63 58 54 59 50 46 46 48 51 47 44 42 45 42 46 40 41 46 46 47 42 43 50 54 50 47 45 50 53 48 43 43 49 53 50 46 43 50 51 48 41 39 43 43 41 37 36 39 38 37 34 35 34 35 29 26 26 21 18 16 15 12 17 12 16 11 11 15 10 15 11 12 20 19 22 25 33 33 26 5 2 0 0 0 0 0 
0 0 7 12 16 14 16 13 15 11 10 15 10 15 11 11 13 8 11 10 11 14 13 18 18 21 28 31 32 32 34 37 38 35 37 39 37 43 37 42 45 39 50 42 49 50 45 55 53 59 61 54 61 61 61 64 61 63 63 58 61 60 55 51 48 52 48 43 47 49 55 59 51 64 62 68 72 63 75 68 66 65 55 63 60 65 70 71 76 73 73 80 78 77 70 66 70 67 65 62 61 65 61 62 56 54 56 54 60 54 53 55 55 53 50 52 57 58 57 51 52 52 52 49 43 41 42 42 40 36 35 40 43 41 38 36 39 40 37 32 32 32 32 29 27 29 28 31 27 23 23 20 21 20 18 14 16 12 15 10 10 13 9 12 8 8 13 12 16 13 17 27 35 7 2 1 0 0 0 0 
0 1 10 16 21 17 17 10 14 9 8 12 8 13 9 9 13 9 15 12 15 19 26 25 27 30 33 40 38 37 39 40 50 45 47 49 50 58 52 51 56 58 66 65 58 61 60 65 62 60 65 64 67 69 60 63 65 64 61 52 52 51 48 49 46 49 49 45 42 40 44 47 43 52 50 53 60 51 63 58 60 63 56 65 63 66 74 75 79 78 76 79 78 78 73 70 79 72 76 69 69 70 63 71 64 64 67 62 73 64 64 68 63 64 59 58 58 56 56 48 52 57 58 57 49 46 48 45 47 41 42 47 46 45 37 37 40 41 40 34 33 36 33 32 29 28 27 27 28 28 29 31 30 31 29 24 28 25 21 13 11 15 10 13 8 8 13 9 15 11 13 20 33 8 3 1 0 0 0 0 
0 1 8 11 19 22 22 12 16 11 11 15 10 19 12 12 18 15 22 18 19 26 34 29 32 36 45 52 49 48 50 58 63 65 58 59 66 67 67 57 58 68 70 75 62 64 70 67 64 60 64 76 79 82 67 65 70 67 60 50 52 56 58 57 52 53 57 56 56 51 53 58 56 61 56 57 67 64 67 61 65 76 76 75 68 74 80 83 81 74 77 80 83 78 73 70 75 72 81 75 76 81 73 81 72 71 73 64 74 65 67 75 64 70 61 61 65 58 67 57 57 64 57 63 53 54 58 49 59 49 46 53 48 55 44 45 53 46 51 42 42 48 44 49 40 40 45 46 44 38 37 41 41 42 39 34 41 41 35 23 19 21 14 16 10 11 16 11 17 13 14 18 30 8 3 1 0 0 0 0 
0 1 6 7 15 23 30 22 24 17 17 22 14 21 15 16 24 23 30 25 27 32 37 33 35 36 44 56 53 51 52 62 63 62 54 55 67 64 67 58 59 77 74 82 69 71 89 83 89 74 74 87 82 79 64 63 69 66 61 50 51 54 54 53 48 51 57 57 59 53 57 68 70 66 62 64 71 73 72 67 70 76 80 78 75 75 86 87 89 84 86 97 93 96 80 82 88 80 85 75 73 76 65 71 65 71 78 67 79 69 68 73 63 71 65 64 69 61 68 58 59 66 56 65 57 56 65 60 65 50 48 56 50 62 52 52 61 52 58 50 51 60 60 58 46 46 50 52 51 42 43 48 53 51 41 34 40 42 39 27 24 29 25 18 12 12 18 13 18 13 14 20 28 6 2 1 0 0 0 0 
0 0 4 5 12 23 29 34 33 23 22 31 20 26 17 18 27 26 32 27 29 39 44 41 40 40 49 56 53 49 46 55 55 59 52 54 67 66 69 59 60 81 79 86 75 74 85 81 83 67 66 72 69 66 59 58 68 68 66 53 52 57 58 56 50 51 56 58 55 53 57 68 73 72 65 64 69 73 69 67 70 78 80 81 77 76 81 78 80 72 75 85 80 91 78 81 92 82 90 75 74 79 62 70 63 67 76 70 81 72 67 71 60 70 61 62 72 65 77 66 68 77 67 77 63 63 73 66 77 62 62 74 67 70 56 55 64 65 70 55 54 63 66 63 52 51 56 60 56 49 49 56 56 51 42 38 48 47 44 30 28 34 29 20 12 11 18 12 16 11 16 20 20 4 1 1 0 0 0 0 
0 0 3 3 6 16 25 38 30 22 22 30 20 28 19 18 27 31 31 27 28 35 43 39 39 39 45 54 48 45 45 55 59 64 56 54 67 64 72 60 61 79 78 83 74 75 94 96 95 75 70 76 72 70 61 61 67 59 65 53 52 58 57 64 60 60 67 62 62 58 60 69 74 76 69 71 77 77 74 68 69 78 81 82 76 77 85 80 82 77 80 90 86 93 83 84 94 81 90 75 74 86 74 77 63 63 69 63 71 65 66 73 63 69 62 61 65 59 71 62 61 65 62 71 60 59 67 64 73 60 60 71 69 72 60 60 71 72 73 62 63 75 69 66 53 53 60 58 56 46 46 53 54 49 41 38 48 46 40 30 27 31 25 18 11 10 14 9 13 13 17 17 12 2 1 0 0 0 0 0 
0 0 1 3 4 11 22 40 27 19 18 25 16 18 15 16 23 27 29 22 23 34 43 38 37 39 47 52 52 48 48 58 61 59 51 49 63 65 71 59 58 73 71 76 64 66 87 88 97 83 83 95 88 87 71 65 72 54 58 52 53 59 55 66 60 65 77 71 75 65 65 70 69 78 70 72 83 84 79 67 69 76 75 76 67 68 77 74 73 67 67 76 74 77 72 73 83 76 88 77 74 86 73 83 71 65 74 65 72 63 62 71 66 68 61 59 67 59 69 64 63 66 62 66 59 58 68 64 70 59 59 68 68 69 54 54 62 59 63 53 53 64 58 59 49 48 53 54 52 46 47 53 56 52 40 38 43 43 39 27 24 24 16 14 9 7 8 7 13 14 14 10 6 1 0 0 0 0 0 0 
0 0 1 2 3 6 18 45 23 17 15 19 13 18 12 12 18 22 27 23 24 33 44 39 34 36 48 58 51 46 43 52 56 53 50 50 63 64 67 58 57 69 69 72 60 60 77 81 84 69 72 91 95 102 89 88 99 83 79 64 61 69 63 77 66 68 82 72 86 71 70 78 69 80 74 73 86 80 87 77 80 88 83 82 76 71 80 78 78 69 67 73 69 69 59 62 70 63 71 63 67 73 76 77 75 76 84 84 85 77 74 80 80 79 70 68 75 71 77 67 66 72 64 69 60 61 75 65 80 65 65 73 64 68 55 57 70 70 68 55 53 62 62 64 52 50 50 57 53 46 45 46 53 48 37 35 41 42 36 22 17 17 12 13 7 6 8 9 16 14 10 6 3 0 0 0 0 0 0 0 
0 0 0 1 3 5 11 47 25 18 17 25 17 21 14 12 16 14 21 18 18 26 33 32 28 31 42 50 41 41 44 51 58 54 50 51 64 70 69 59 59 74 71 75 63 61 76 74 79 66 72 89 90 96 85 84 105 99 104 89 85 100 92 97 79 80 93 77 89 73 71 84 67 82 73 74 92 76 92 79 82 94 79 90 84 80 85 77 85 75 75 83 70 79 68 68 73 59 67 62 62 69 74 74 71 72 81 89 87 80 74 84 86 89 79 77 86 80 86 75 71 79 70 74 62 61 75 70 80 65 64 76 71 80 62 63 73 73 72 58 58 64 65 65 54 55 59 61 52 45 42 45 45 38 29 27 32 31 21 12 10 13 10 11 6 7 11 17 14 7 4 2 1 0 0 0 0 0 0 0 
0 0 0 1 1 3 5 29 32 33 28 33 21 27 18 17 22 15 21 17 19 29 36 34 30 31 40 46 42 39 43 49 55 50 48 50 59 65 62 54 55 72 73 71 60 57 68 69 73 62 63 79 77 85 73 77 94 92 91 82 83 103 99 103 86 88 97 96 94 79 78 93 83 87 80 79 94 79 94 77 77 94 77 96 79 80 93 73 93 76 78 89 71 89 77 77 91 82 94 80 78 84 83 83 72 70 75 80 81 76 77 90 91 97 84 82 90 86 91 75 75 82 73 74 65 61 74 71 77 59 57 64 58 68 55 57 65 66 66 51 52 58 65 56 47 48 54 55 47 39 37 43 43 33 22 20 21 17 11 8 8 11 7 10 8 10 13 15 4 2 1 0 0 0 0 0 0 0 0 0 
0 0 0 0 0 1 2 8 13 27 34 40 37 32 20 20 30 21 26 16 17 25 27 31 24 25 34 40 37 33 36 48 57 46 44 44 50 60 56 53 53 66 69 65 56 55 70 69 70 62 61 76 74 76 65 65 81 75 80 74 77 93 92 91 77 74 82 84 82 75 77 91 94 97 88 88 105 101 103 91 92 108 101 105 89 88 101 91 99 84 83 92 81 90 78 80 95 98 107 96 93 104 104 101 84 82 92 88 96 86 90 103 98 98 84 83 93 91 94 79 77 87 78 81 66 65 75 71 78 63 61 75 63 66 49 49 58 58 59 49 48 54 58 52 45 45 47 52 43 34 31 34 36 26 16 13 15 10 13 9 8 11 9 12 11 9 6 4 1 0 0 0 0 0 0 0 0 0 0 0 
0 0 0 0 0 0 0 3 3 5 10 20 55 35 27 24 32 22 30 19 18 25 19 25 18 19 29 34 35 31 33 44 53 47 39 43 50 59 49 49 49 57 66 62 57 54 63 69 65 60 59 72 72 71 63 66 89 82 85 70 68 79 78 78 66 68 83 85 84 82 83 98 97 97 85 88 105 102 105 89 89 99 98 99 87 89 105 102 105 89 83 92 90 91 83 87 104 102 108 93 89 102 97 102 85 87 98 97 103 87 85 99 92 92 75 74 84 82 92 79 78 91 83 86 68 66 73 71 69 54 55 69 69 70 52 49 54 50 52 43 43 48 51 47 40 39 42 45 34 26 25 29 26 18 10 9 13 9 13 8 9 13 18 11 6 3 2 1 0 0 0 0 0 0 0 0 0 0 0 0 
0 0 0 0 0 0 0 0 0 2 3 4 16 22 29 31 39 30 34 21 21 30 23 28 18 18 28 27 32 24 25 36 43 44 36 37 48 51 51 48 53 58 66 52 50 50 56 69 62 56 54 62 67 65 60 61 80 81 84 71 72 91 85 79 70 70 83 82 88 78 79 93 92 94 81 81 96 90 96 86 89 104 103 104 88 88 101 103 103 90 83 94 96 100 90 91 99 97 96 86 83 93 92 96 83 83 94 97 100 83 78 89 83 86 73 73 87 79 85 69 67 77 71 78 63 63 70 67 65 49 48 60 62 63 48 46 50 47 43 36 36 40 43 42 34 33 39 39 27 18 14 16 12 13 9 9 14 10 14 11 14 14 16 3 2 1 1 0 0 0 0 0 0 0 0 0 0 0 0 0 
0 0 0 0 0 0 0 0 0 0 0 1 5 4 5 10 23 53 36 28 26 37 25 35 24 23 32 22 29 20 20 27 31 35 29 31 43 51 52 42 44 51 55 46 45 50 57 69 56 51 49 58 66 58 54 52 63 72 72 64 64 79 77 72 65 66 76 83 82 71 75 95 89 93 81 80 93 92 97 87 85 100 91 94 80 84 96 89 94 78 74 88 83 90 80 80 88 85 89 78 77 86 81 81 70 71 82 88 91 78 76 87 79 82 65 64 78 78 84 68 65 73 72 72 61 62 72 75 72 52 49 54 63 57 48 47 51 51 43 33 31 34 33 32 24 22 27 29 20 12 10 14 10 14 10 11 16 17 21 15 9 5 4 1 0 0 0 0 0 0 0 0 0 0 0 0 0 0 0 0 
0 0 0 0 0 0 0 0 0 0 0 0 0 0 2 3 4 12 16 25 32 37 39 33 23 23 33 24 33 22 21 30 22 29 22 23 32 34 37 29 31 44 52 52 41 43 50 55 45 44 48 54 65 53 50 49 60 70 68 59 55 62 64 63 59 63 72 82 76 66 68 80 79 77 69 72 82 87 93 77 73 81 73 79 73 77 90 89 90 74 71 85 79 83 73 73 87 81 86 74 75 86 78 80 61 61 71 75 79 65 64 77 73 81 66 64 75 72 74 58 58 65 63 66 57 58 66 66 62 46 45 47 52 46 37 37 39 48 41 35 30 32 30 22 16 13 16 14 15 10 11 16 12 18 13 14 18 25 8 3 2 2 1 0 0 0 0 0 0 0 0 0 0 0 0 0 0 0 0 0 
0 0 0 0 0 0 0 0 0 0 0 0 0 0 0 0 0 3 4 5 6 10 38 32 31 29 33 27 30 21 21 29 22 28 18 18 25 20 27 21 23 33 37 37 27 26 36 40 42 36 39 49 58 51 46 49 56 64 50 48 47 54 62 58 52 55 68 75 69 58 58 65 71 67 63 66 81 85 80 64 60 65 63 71 62 66 80 85 86 71 71 90 86 91 75 74 87 80 83 67 68 83 80 82 65 61 69 66 67 52 52 62 62 67 57 56 68 73 72 56 54 62 59 55 49 51 55 59 57 45 45 49 51 42 35 31 32 36 32 25 23 26 26 20 15 13 17 12 17 13 12 19 17 24 17 15 10 7 2 1 1 0 0 0 0 0 0 0 0 0 0 0 0 0 0 0 0 0 0 0 
0 0 0 0 0 0 0 0 0 0 0 0 0 0 0 0 0 0 0 0 1 3 8 6 8 12 20 51 35 30 27 33 24 32 21 21 31 23 30 20 18 24 20 27 20 21 31 32 36 29 29 38 48 41 38 39 49 56 49 44 46 55 62 54 47 48 55 63 55 48 47 54 65 60 56 59 68 74 66 57 56 64 75 73 65 64 76 82 76 66 67 85 87 89 74 71 82 78 75 62 61 72 80 80 68 68 79 70 62 44 41 42 48 51 47 49 57 69 64 51 50 56 56 49 44 44 49 46 39 35 33 37 43 39 29 25 29 27 23 17 15 20 15 16 12 13 18 12 19 15 17 24 30 14 6 4 2 3 0 0 0 0 0 0 0 0 0 0 0 0 0 0 0 0 0 0 0 0 0 0 
0 0 0 0 0 0 0 0 0 0 0 0 0 0 0 0 0 0 0 0 0 0 0 1 2 3 5 11 9 12 20 30 57 35 28 26 33 24 32 21 21 28 22 29 19 19 26 21 29 21 22 31 28 32 24 25 34 38 36 31 32 42 50 45 38 38 46 53 51 44 46 53 59 51 46 50 58 66 54 49 49 57 65 61 53 51 58 63 62 58 61 72 77 78 67 66 76 76 69 57 54 60 70 68 63 64 75 71 70 54 51 51 52 42 38 40 45 56 56 52 53 55 56 52 42 37 41 40 34 28 25 33 30 30 22 20 24 20 18 12 11 18 12 15 11 12 18 17 25 21 19 14 10 3 2 1 1 0 0 0 0 0 0 0 0 0 0 0 0 0 0 0 0 0 0 0 0 0 0 0 
0 0 0 0 0 0 0 0 0 0 0 0 0 0 0 0 0 0 0 0 0 0 0 0 0 0 0 1 2 4 5 6 14 13 18 28 40 79 48 38 34 41 30 36 22 22 32 22 30 20 21 31 23 30 20 19 26 21 27 19 20 30 29 33 27 28 38 42 42 33 34 43 53 52 44 47 60 64 51 43 43 55 59 54 44 42 48 55 52 53 55 65 73 67 59 59 64 72 57 49 48 56 63 54 54 54 59 64 59 52 48 47 50 39 35 34 38 43 44 41 41 50 56 47 36 33 39 38 33 22 20 24 21 22 15 15 21 15 18 13 13 23 15 23 17 17 21 34 21 10 5 3 3 1 0 0 0 0 0 0 0 0 0 0 0 0 0 0 0 0 0 0 0 0 0 0 0 0 0 0 
0 0 0 0 0 0 0 0 0 0 0 0 0 0 0 0 0 0 0 0 0 0 0 0 0 0 0 0 0 0 0 0 3 3 4 5 7 16 15 21 32 43 89 58 50 45 50 45 41 26 24 34 23 32 21 20 30 21 27 17 17 25 22 30 21 21 32 29 35 25 25 33 36 39 32 33 45 46 43 32 34 48 49 50 39 39 52 55 53 45 47 57 64 56 44 44 51 59 48 42 41 51 53 46 45 42 52 54 55 45 44 53 49 38 30 29 36 37 37 27 27 36 37 35 26 25 31 27 26 17 17 23 17 20 13 13 20 15 23 18 20 27 36 29 21 17 14 13 3 2 1 1 0 0 0 0 0 0 0 0 0 0 0 0 0 0 0 0 0 0 0 0 0 0 0 0 0 0 0 0 
0 0 0 0 0 0 0 0 0 0 0 0 0 0 0 0 0 0 0 0 0 0 0 0 0 0 0 0 0 0 0 0 0 0 0 0 0 3 3 4 5 7 15 12 14 19 28 65 45 46 48 56 78 49 38 35 44 34 38 26 26 35 24 35 22 22 32 24 35 23 24 35 28 37 25 25 36 28 36 25 25 35 28 32 26 28 42 39 42 32 32 43 42 44 32 31 40 41 39 30 29 40 41 43 33 34 44 46 45 36 35 45 47 42 32 30 37 34 33 23 23 29 25 29 19 19 24 18 22 14 14 23 17 24 20 22 32 41 33 26 22 18 21 10 6 4 3 2 0 0 0 0 0 0 0 0 0 0 0 0 0 0 0 0 0 0 0 0 0 0 0 0 0 0 0 0 0 0 0 0 
0 0 0 0 0 0 0 0 0 0 0 0 0 0 0 0 0 0 0 0 0 0 0 0 0 0 0 0 0 0 0 0 0 0 0 0 0 0 0 0 0 0 1 1 2 3 4 9 6 7 9 11 24 20 23 28 36 71 44 42 42 49 69 44 39 37 46 45 39 29 27 39 32 38 27 26 36 27 38 27 26 35 29 36 25 24 34 30 35 26 27 38 33 38 28 27 38 33 38 27 26 37 31 37 26 27 38 33 38 28 26 37 31 36 25 25 35 27 33 22 21 29 19 26 17 18 30 24 31 24 27 34 48 35 25 22 19 21 11 8 6 4 5 1 0 0 0 0 0 0 0 0 0 0 0 0 0 0 0 0 0 0 0 0 0 0 0 0 0 0 0 0 0 0 0 0 0 0 0 0 
0 0 0 0 0 0 0 0 0 0 0 0 0 0 0 0 0 0 0 0 0 0 0 0 0 0 0 0 0 0 0 0 0 0 0 0 0 0 0 0 0 0 0 0 0 0 0 0 0 0 1 1 3 2 2 3 4 9 6 6 7 9 18 11 13 16 20 42 29 31 33 37 59 33 30 30 37 52 35 31 31 41 40 36 27 27 37 30 37 26 26 40 29 35 24 23 36 25 35 25 27 41 29 40 27 26 40 30 40 27 27 39 31 37 27 28 40 36 44 33 32 40 53 44 35 34 35 51 29 21 17 15 19 10 7 6 5 5 1 0 0 0 0 0 0 0 0 0 0 0 0 0 0 0 0 0 0 0 0 0 0 0 0 0 0 0 0 0 0 0 0 0 0 0 0 0 0 0 0 0 
0 0 0 0 0 0 0 0 0 0 0 0 0 0 0 0 0 0 0 0 0 0 0 0 0 0 0 0 0 0 0 0 0 0 0 0 0 0 0 0 0 0 0 0 0 0 0 0 0 0 1 0 0 0 0 0 0 0 0 0 1 1 4 4 4 6 6 9 5 4 5 6 11 7 8 9 11 20 14 15 17 20 39 25 25 25 29 52 30 31 31 37 60 37 34 32 36 54 36 35 35 41 65 41 38 37 41 65 41 35 34 35 52 30 27 25 26 38 22 17 16 15 21 12 10 9 8 12 6 4 4 3 3 1 0 0 0 0 0 0 0 0 0 0 0 0 0 0 0 0 0 0 0 0 0 0 0 0 0 0 0 0 0 0 0 0 0 0 0 0 0 0 0 0 0 0 0 0 0 0 
0 0 0 0 0 0 0 0 0 0 0 0 0 0 0 0 0 0 0 0 0 0 0 0 0 0 0 0 0 0 0 0 0 0 0 0 0 0 0 0 0 0 0 0 0 0 0 0 1 1 1 1 1 2 3 3 5 6 7 12 20 15 10 9 9 10 11 10 10 7 4 0 0 0 0 0 1 2 1 1 1 2 3 2 2 2 3 5 3 3 3 4 8 5 8 7 7 12 8 9 8 8 15 9 8 8 8 15 7 6 6 6 10 5 4 4 4 6 3 2 2 2 2 1 0 0 0 0 0 0 0 0 0 0 0 0 0 0 0 0 0 0 0 0 0 0 0 0 0 0 0 0 0 0 0 0 0 0 0 0 0 0 0 0 0 0 0 0 0 0 0 0 0 0 0 0 0 0 0 0 
0 0 0 0 0 0 0 0 0 0 0 0 0 0 0 0 0 0 0 0 0 0 0 0 0 0 0 0 0 0 0 0 0 0 0 0 0 0 0 0 0 0 0 0 0 0 0 0 0 0 0 0 2 3 5 8 10 10 12 17 36 43 35 27 19 12 12 12 13 15 15 19 28 34 34 41 25 13 6 4 1 0 0 0 0 0 0 0 0 1 3 5 8 10 14 8 8 8 8 10 4 2 1 0 0 0 0 0 0 0 0 0 0 0 0 0 0 0 0 0 0 0 0 0 0 0 0 0 0 0 0 0 0 0 0 0 0 0 0 0 0 0 0 0 0 0 0 0 0 0 0 0 0 0 0 0 0 0 0 0 0 0 0 0 0 0 0 0 0 0 0 0 0 0 0 0 0 0 0 0 
